<svg width="268" height="43" viewBox="0 0 268 43" fill="none" xmlns="http://www.w3.org/2000/svg">
<path fill-rule="evenodd" clip-rule="evenodd" d="M4.15271 16.7985C3.7523 16.164 3.38069 15.5168 3.04039 14.8622C2.24254 15.1622 1.47499 15.505 0.738238 15.8892C1.18138 16.5906 1.67619 17.2669 2.21322 17.9229L4.15271 16.7985Z" fill="#282828"/>
<path fill-rule="evenodd" clip-rule="evenodd" d="M5.96155 12.4773C5.73998 11.7587 5.54772 11.04 5.38974 10.317C4.54568 10.4056 3.71404 10.5367 2.8998 10.7228C3.1477 11.5085 3.44577 12.2911 3.79502 13.0649C4.50345 12.8408 5.22331 12.6418 5.96155 12.4773Z" fill="#282828"/>
<path fill-rule="evenodd" clip-rule="evenodd" d="M37.288 30.4081C37.514 31.1223 37.7018 31.8454 37.8588 32.564C38.7083 32.4754 39.539 32.3443 40.3542 32.1582C40.1063 31.3725 39.8082 30.5899 39.458 29.82C38.7506 30.0441 38.0262 30.2392 37.288 30.4081Z" fill="#282828"/>
<path fill-rule="evenodd" clip-rule="evenodd" d="M8.83501 8.76051C8.80968 8.01282 8.80968 7.26365 8.84793 6.52876C8.00387 6.39676 7.16777 6.31253 6.33265 6.27855C6.36644 7.10308 6.45188 7.93549 6.58801 8.77332C7.33022 8.73539 8.08088 8.73539 8.83501 8.76051Z" fill="#282828"/>
<path fill-rule="evenodd" clip-rule="evenodd" d="M6.87019 10.2155C7.01873 10.8701 7.19758 11.5306 7.40722 12.1852C7.97407 12.0877 8.55035 12.0035 9.13011 11.9365C9.04516 11.3607 8.9761 10.7859 8.9294 10.2199C8.23488 10.1894 7.54782 10.1894 6.87019 10.2155Z" fill="#282828"/>
<path fill-rule="evenodd" clip-rule="evenodd" d="M8.44304 14.9548L9.62442 14.5697C9.53053 14.1682 9.44557 13.7663 9.36907 13.3649C8.87029 13.4245 8.37548 13.4959 7.88415 13.5757C8.06001 14.0367 8.24681 14.4977 8.44304 14.9548Z" fill="#282828"/>
<path fill-rule="evenodd" clip-rule="evenodd" d="M34.418 34.1205C34.4443 34.8726 34.4399 35.6173 34.4051 36.3522C35.2457 36.4877 36.0852 36.5719 36.9214 36.6024C36.8876 35.7779 36.8021 34.9445 36.666 34.1121C35.9253 34.1456 35.1756 34.1495 34.418 34.1205Z" fill="#282828"/>
<path fill-rule="evenodd" clip-rule="evenodd" d="M36.3838 32.666C36.2343 32.0114 36.0554 31.3509 35.8468 30.6963C35.2789 30.7968 34.7037 30.8825 34.1239 30.9494C34.2089 31.5198 34.2724 32.0956 34.3236 32.666C35.0191 32.6906 35.7057 32.695 36.3838 32.666Z" fill="#282828"/>
<path fill-rule="evenodd" clip-rule="evenodd" d="M10.4094 5.34467C11.1342 5.50032 11.859 5.69093 12.5838 5.91061C12.7542 5.17868 12.9505 4.46005 13.1765 3.75866C12.396 3.41683 11.6111 3.11982 10.8142 2.87551C10.6309 3.67886 10.4943 4.5029 10.4094 5.34467Z" fill="#282828"/>
<path fill-rule="evenodd" clip-rule="evenodd" d="M12.0379 9.05309C12.1064 8.47286 12.1919 7.90692 12.2902 7.34098C11.6285 7.13756 10.9683 6.96024 10.3021 6.80755C10.2767 7.48382 10.2767 8.16502 10.3065 8.8541C10.8818 8.9004 11.4581 8.96788 12.0379 9.05309Z" fill="#282828"/>
<path fill-rule="evenodd" clip-rule="evenodd" d="M10.4094 10.3204C10.4566 10.8076 10.5162 11.3021 10.5882 11.7927C10.9976 11.7636 11.4114 11.7419 11.8252 11.7247C11.8416 11.3144 11.8635 10.9056 11.8973 10.4992C11.3985 10.4268 10.9037 10.3672 10.4094 10.3204Z" fill="#282828"/>
<path fill-rule="evenodd" clip-rule="evenodd" d="M30.077 39.1223C30.852 39.4642 31.6414 39.7651 32.4393 40.0099C32.6226 39.2026 32.7592 38.3776 32.8442 37.5368C32.1193 37.3797 31.3945 37.1906 30.6682 36.9709C30.4978 37.7013 30.303 38.4195 30.077 39.1223Z" fill="#282828"/>
<path fill-rule="evenodd" clip-rule="evenodd" d="M31.2147 33.8328C31.1471 34.4076 31.0617 34.979 30.9638 35.541C31.624 35.7444 32.2858 35.9262 32.9505 36.0735C32.9768 35.3972 32.9723 34.7175 32.946 34.0323C32.3707 33.9816 31.7954 33.9126 31.2147 33.8328Z" fill="#282828"/>
<path fill-rule="evenodd" clip-rule="evenodd" d="M32.6658 31.0888C32.2564 31.1179 31.8426 31.1396 31.4288 31.1558C31.4114 31.5705 31.3861 31.9764 31.3558 32.3862C31.8545 32.4586 32.3503 32.5172 32.8447 32.5635C32.798 32.0734 32.7378 31.5834 32.6658 31.0888Z" fill="#282828"/>
<path fill-rule="evenodd" clip-rule="evenodd" d="M18.0804 2.19481C17.4157 1.66137 16.7331 1.17079 16.0291 0.731438C15.6416 1.45894 15.2953 2.22387 14.9888 3.01096C15.6506 3.34885 16.3023 3.72122 16.9462 4.11822C17.2999 3.45475 17.6755 2.81197 18.0804 2.19481Z" fill="#282828"/>
<path fill-rule="evenodd" clip-rule="evenodd" d="M16.2904 5.4289C15.7022 5.05653 15.109 4.71864 14.5079 4.40193C14.3072 5.04815 14.1279 5.70423 13.9783 6.37607C14.5208 6.57112 15.0623 6.78637 15.5994 7.01048C15.8165 6.4736 16.047 5.94558 16.2904 5.4289Z" fill="#282828"/>
<path fill-rule="evenodd" clip-rule="evenodd" d="M15.0827 8.37189C14.6222 8.17733 14.1572 7.99115 13.6932 7.81777C13.6112 8.30392 13.5392 8.79401 13.4835 9.28853C13.8839 9.36536 14.2903 9.44959 14.6952 9.54268C14.8184 9.14864 14.9506 8.75608 15.0827 8.37189Z" fill="#282828"/>
<path fill-rule="evenodd" clip-rule="evenodd" d="M14.2903 10.9386C13.9749 10.8662 13.6584 10.8031 13.3469 10.744C13.3216 11.0568 13.3042 11.3784 13.2923 11.6956C13.5566 11.7001 13.8248 11.7001 14.0936 11.7084C14.1567 11.4498 14.2213 11.1917 14.2903 10.9386Z" fill="#282828"/>
<path fill-rule="evenodd" clip-rule="evenodd" d="M13.6842 13.5644C13.7135 13.4289 13.7399 13.2895 13.7692 13.1541C13.5988 13.1496 13.4319 13.1496 13.2615 13.1496C13.2615 13.3141 13.2615 13.4787 13.2659 13.6486L13.6842 13.5644Z" fill="#282828"/>
<path fill-rule="evenodd" clip-rule="evenodd" d="M25.1721 40.6862C25.8339 41.2231 26.5204 41.7092 27.2234 42.154C27.6119 41.4226 27.9572 40.6571 28.2592 39.87C27.599 39.5321 26.9502 39.1598 26.3063 38.7628C25.9526 39.4262 25.574 40.069 25.1721 40.6862Z" fill="#282828"/>
<path fill-rule="evenodd" clip-rule="evenodd" d="M26.9636 37.4565C27.5478 37.8245 28.145 38.1668 28.7461 38.4796C28.9458 37.8368 29.1217 37.1773 29.2747 36.5054C28.7332 36.3104 28.1917 36.0996 27.6546 35.871C27.4375 36.4079 27.207 36.9359 26.9636 37.4565Z" fill="#282828"/>
<path fill-rule="evenodd" clip-rule="evenodd" d="M28.1668 34.5091C28.6308 34.7081 29.0958 34.8898 29.5608 35.0632C29.6418 34.5771 29.7138 34.087 29.7695 33.591C29.3646 33.5151 28.9592 33.4309 28.5543 33.3423C28.4351 33.7353 28.3034 34.1249 28.1668 34.5091Z" fill="#282828"/>
<path fill-rule="evenodd" clip-rule="evenodd" d="M28.9637 31.9429C29.2791 32.0143 29.5901 32.0784 29.9056 32.1419C29.9319 31.8247 29.9483 31.5031 29.9613 31.1864C29.6925 31.1864 29.4287 31.1819 29.1599 31.1736C29.0953 31.4312 29.0317 31.6897 28.9637 31.9429Z" fill="#282828"/>
<path fill-rule="evenodd" clip-rule="evenodd" d="M29.5653 29.3171C29.539 29.4526 29.5141 29.592 29.4843 29.7274C29.6547 29.7319 29.8207 29.7319 29.9911 29.7319C29.9911 29.5673 29.9866 29.4018 29.9866 29.2373L29.5653 29.3171Z" fill="#282828"/>
<path fill-rule="evenodd" clip-rule="evenodd" d="M21.624 3.50992C22.1402 2.96023 22.6733 2.43517 23.2232 1.94065C22.7244 1.25551 22.1914 0.604853 21.624 0C21.0616 0.604853 20.5281 1.25551 20.0293 1.94065C20.5798 2.43517 21.1133 2.96023 21.624 3.50992Z" fill="#282828"/>
<path fill-rule="evenodd" clip-rule="evenodd" d="M20.6528 4.60437C20.1833 4.09655 19.6975 3.61532 19.1987 3.15824C18.836 3.72566 18.4947 4.3177 18.1703 4.926C18.6442 5.25601 19.1137 5.59833 19.5698 5.9574C19.919 5.49293 20.2817 5.04077 20.6528 4.60437Z" fill="#282828"/>
<path fill-rule="evenodd" clip-rule="evenodd" d="M16.9298 7.61435C17.2999 7.79314 17.671 7.97489 18.0377 8.16846C18.2592 7.81777 18.4853 7.47594 18.7158 7.1415C18.3238 6.82873 17.9234 6.53221 17.518 6.24949C17.3128 6.69327 17.1161 7.14987 16.9298 7.61435Z" fill="#282828"/>
<path fill-rule="evenodd" clip-rule="evenodd" d="M16.119 9.88944C16.3754 9.96086 16.6312 10.0333 16.8866 10.1047C17.0197 9.8722 17.1474 9.64021 17.284 9.41216C16.9934 9.2639 16.7077 9.12007 16.4226 8.98019C16.3158 9.28114 16.2129 9.58504 16.119 9.88944Z" fill="#282828"/>
<path fill-rule="evenodd" clip-rule="evenodd" d="M15.586 11.7705C15.7271 11.7794 15.8677 11.7877 16.0082 11.7966C16.0713 11.67 16.1359 11.5424 16.196 11.4198C16.0376 11.373 15.8716 11.3267 15.7092 11.2843C15.6664 11.4454 15.6242 11.606 15.586 11.7705Z" fill="#282828"/>
<path fill-rule="evenodd" clip-rule="evenodd" d="M21.6285 39.3711C21.1133 39.9252 20.5793 40.4458 20.0293 40.9438C20.5281 41.6289 21.0621 42.2761 21.624 42.881C22.1919 42.2761 22.7244 41.6289 23.2232 40.9438C22.6728 40.4458 22.1407 39.9252 21.6285 39.3711Z" fill="#282828"/>
<path fill-rule="evenodd" clip-rule="evenodd" d="M22.6012 38.2811C23.0707 38.7835 23.5566 39.2662 24.0553 39.7262C24.418 39.1558 24.7583 38.5638 25.0782 37.9555C24.6098 37.6299 24.1403 37.2831 23.6842 36.9285C23.3305 37.3886 22.9723 37.8407 22.6012 38.2811Z" fill="#282828"/>
<path fill-rule="evenodd" clip-rule="evenodd" d="M26.3197 35.2701C25.9486 35.0928 25.5815 34.9066 25.2149 34.717C24.9933 35.0632 24.7673 35.4055 24.5328 35.7439C24.9302 36.0523 25.3306 36.3478 25.736 36.6359C25.9402 36.1877 26.1359 35.7311 26.3197 35.2701Z" fill="#282828"/>
<path fill-rule="evenodd" clip-rule="evenodd" d="M27.134 32.9916C26.8786 32.9236 26.6218 32.8522 26.362 32.7763C26.2343 33.0078 26.1066 33.2408 25.97 33.4688C26.2561 33.6171 26.5453 33.7609 26.8314 33.9008C26.9382 33.5999 27.0356 33.296 27.134 32.9916Z" fill="#282828"/>
<path fill-rule="evenodd" clip-rule="evenodd" d="M27.6665 31.1135C27.527 31.1061 27.3859 31.0928 27.2408 31.0844C27.1807 31.211 27.1176 31.3376 27.053 31.4656C27.2145 31.508 27.3774 31.5543 27.5389 31.5967C27.5856 31.4356 27.6238 31.2745 27.6665 31.1135Z" fill="#282828"/>
<path fill-rule="evenodd" clip-rule="evenodd" d="M11.5182 26.8233C11.4715 26.9834 11.4278 27.1435 11.3816 27.3006C11.543 27.3469 11.709 27.3848 11.8719 27.4272C11.8809 27.2878 11.8883 27.1479 11.9012 27.0085C11.7691 26.946 11.6459 26.8864 11.5182 26.8233Z" fill="#282828"/>
<path fill-rule="evenodd" clip-rule="evenodd" d="M31.8675 15.5809C31.706 15.5385 31.543 15.4966 31.3816 15.4543C31.3726 15.5937 31.3642 15.7326 31.3513 15.872C31.4799 15.936 31.6076 15.9951 31.7353 16.0581C31.782 15.8981 31.8247 15.7409 31.8675 15.5809Z" fill="#282828"/>
<path fill-rule="evenodd" clip-rule="evenodd" d="M28.2597 3.01096C27.9572 2.22387 27.6124 1.45894 27.2239 0.731438C26.5209 1.17079 25.8344 1.66137 25.1726 2.19481C25.5745 2.81197 25.9531 3.45475 26.3068 4.11822C26.9512 3.72122 27.604 3.34885 28.2597 3.01096Z" fill="#282828"/>
<path fill-rule="evenodd" clip-rule="evenodd" d="M23.6798 5.9574C24.1403 5.59784 24.6098 5.25601 25.0782 4.926C24.7583 4.3177 24.418 3.72566 24.0553 3.15824C23.5566 3.61483 23.0707 4.09655 22.6012 4.60437C22.9723 5.04077 23.3305 5.49293 23.6798 5.9574Z" fill="#282828"/>
<path fill-rule="evenodd" clip-rule="evenodd" d="M21.624 5.71261C21.3086 6.09236 21.0015 6.48197 20.704 6.87946C21.0149 7.14593 21.322 7.42077 21.624 7.70005C21.932 7.42077 22.2386 7.14593 22.5501 6.87946C22.252 6.48246 21.94 6.09286 21.624 5.71261Z" fill="#282828"/>
<path fill-rule="evenodd" clip-rule="evenodd" d="M19.8505 8.07143C19.6716 8.33445 19.4967 8.60093 19.3219 8.87134C19.5524 9.00235 19.7824 9.13781 20.0129 9.2772C20.1962 9.08215 20.384 8.89596 20.5708 8.70978C20.3329 8.4901 20.0939 8.2788 19.8505 8.07143Z" fill="#282828"/>
<path fill-rule="evenodd" clip-rule="evenodd" d="M18.7158 10.6839C18.8097 10.579 18.9036 10.4726 18.9975 10.3667C18.8524 10.2825 18.7113 10.1978 18.5672 10.1135C18.4808 10.2574 18.3958 10.4056 18.3149 10.5485C18.4515 10.5948 18.5841 10.6416 18.7158 10.6839Z" fill="#282828"/>
<path fill-rule="evenodd" clip-rule="evenodd" d="M14.9888 39.87C15.2953 40.6571 15.6416 41.4221 16.0291 42.154C16.7331 41.7092 17.4157 41.2231 18.0759 40.6862C17.6755 40.069 17.2999 39.4262 16.9462 38.7628C16.3019 39.1598 15.6506 39.5321 14.9888 39.87Z" fill="#282828"/>
<path fill-rule="evenodd" clip-rule="evenodd" d="M19.5698 36.9236C19.1132 37.2832 18.6442 37.6294 18.1748 37.955C18.4947 38.5633 18.8365 39.1553 19.1987 39.7257C19.6975 39.2657 20.1833 38.783 20.6528 38.2806C20.2817 37.8402 19.919 37.3881 19.5698 36.9236Z" fill="#282828"/>
<path fill-rule="evenodd" clip-rule="evenodd" d="M21.6285 37.1684C21.944 36.7926 22.252 36.399 22.5501 36.0015C22.2391 35.7351 21.932 35.4602 21.624 35.1809C21.3215 35.4602 21.0149 35.7351 20.704 36.0015C21.002 36.3985 21.3086 36.7926 21.6285 37.1684Z" fill="#282828"/>
<path fill-rule="evenodd" clip-rule="evenodd" d="M23.4026 34.8091C23.5814 34.547 23.7563 34.2811 23.9321 34.0102C23.7016 33.8791 23.4716 33.7437 23.2411 33.6043C23.0578 33.7993 22.87 33.9895 22.6822 34.1756C22.9212 34.3909 23.1601 34.6022 23.4026 34.8091Z" fill="#282828"/>
<path fill-rule="evenodd" clip-rule="evenodd" d="M24.9377 32.3315C24.801 32.2852 24.6689 32.2429 24.5328 32.1961C24.4433 32.302 24.3494 32.4084 24.2521 32.5133C24.3961 32.599 24.5412 32.6832 24.6868 32.7674C24.7717 32.6236 24.8527 32.4759 24.9377 32.3315Z" fill="#282828"/>
<path fill-rule="evenodd" clip-rule="evenodd" d="M9.06205 26.5992C9.3646 26.7041 9.66665 26.8017 9.97814 26.8992C10.0467 26.646 10.1187 26.3914 10.1923 26.1382C9.95777 26.0116 9.72726 25.8796 9.49675 25.7486C9.34721 26.0323 9.20215 26.3155 9.06205 26.5992Z" fill="#282828"/>
<path fill-rule="evenodd" clip-rule="evenodd" d="M10.7805 24.3241C10.6692 24.231 10.5634 24.138 10.4561 24.0449C10.3711 24.1887 10.2857 24.333 10.2037 24.4768C10.3488 24.5611 10.4943 24.6413 10.6394 24.7216C10.6866 24.5906 10.7333 24.4547 10.7805 24.3241Z" fill="#282828"/>
<path fill-rule="evenodd" clip-rule="evenodd" d="M34.192 16.2818C33.8894 16.1769 33.5859 16.0793 33.2749 15.9818C33.2073 16.235 33.1343 16.4896 33.0578 16.7428C33.2967 16.8738 33.5272 17.0004 33.7578 17.1314C33.9063 16.8487 34.0509 16.5655 34.192 16.2818Z" fill="#282828"/>
<path fill-rule="evenodd" clip-rule="evenodd" d="M32.4735 18.5574C32.5794 18.6504 32.6906 18.7435 32.7935 18.8366C32.8829 18.6928 32.9683 18.5485 33.0488 18.4047C32.9038 18.3244 32.7597 18.2401 32.6102 18.1599C32.5674 18.2909 32.5207 18.4268 32.4735 18.5574Z" fill="#282828"/>
<path fill-rule="evenodd" clip-rule="evenodd" d="M32.8447 5.34467C32.7597 4.50241 32.6231 3.67886 32.4398 2.87601C31.6419 3.1208 30.8525 3.41732 30.0775 3.76358C30.3035 4.46054 30.4988 5.17917 30.6692 5.9111C31.395 5.69143 32.1193 5.50032 32.8447 5.34467Z" fill="#282828"/>
<path fill-rule="evenodd" clip-rule="evenodd" d="M27.6546 7.01048C28.1917 6.78193 28.7332 6.57112 29.2747 6.37607C29.1217 5.70374 28.9463 5.04372 28.7461 4.40193C28.1445 4.7147 27.5473 5.05653 26.9636 5.42496C27.207 5.94558 27.4375 6.4736 27.6546 7.01048Z" fill="#282828"/>
<path fill-rule="evenodd" clip-rule="evenodd" d="M24.5328 7.1415C24.7673 7.47594 24.9933 7.81777 25.2149 8.16846C25.5815 7.97489 25.9486 7.79314 26.3197 7.61435C26.1364 7.14987 25.9397 6.69327 25.7315 6.24949C25.3266 6.53221 24.9302 6.82873 24.5328 7.1415Z" fill="#282828"/>
<path fill-rule="evenodd" clip-rule="evenodd" d="M23.4026 8.07143C23.1601 8.27929 22.9212 8.4901 22.6822 8.70978C22.87 8.89596 23.0578 9.08215 23.2411 9.2772C23.4716 9.13731 23.6976 9.00235 23.9277 8.87134C23.7563 8.60093 23.5814 8.33445 23.4026 8.07143Z" fill="#282828"/>
<path fill-rule="evenodd" clip-rule="evenodd" d="M21.2748 10.0712C21.3895 10.147 21.5093 10.2239 21.624 10.3037C21.7442 10.2234 21.8585 10.1466 21.9787 10.0712C21.863 9.94904 21.7442 9.82984 21.624 9.71606C21.5093 9.82984 21.3895 9.94854 21.2748 10.0712Z" fill="#282828"/>
<path fill-rule="evenodd" clip-rule="evenodd" d="M10.4094 37.5363C10.4943 38.3771 10.6309 39.2021 10.8142 40.0094C11.6111 39.7646 12.396 39.4637 13.1765 39.1218C12.9505 38.4195 12.7498 37.7008 12.5838 36.9699C11.859 37.1896 11.1342 37.3797 10.4094 37.5363Z" fill="#282828"/>
<path fill-rule="evenodd" clip-rule="evenodd" d="M15.5994 35.8705C15.0623 36.0991 14.5208 36.3099 13.9783 36.5049C14.1279 37.1773 14.3067 37.8363 14.5079 38.4791C15.1095 38.1663 15.7022 37.8245 16.2904 37.456C16.047 36.9354 15.8165 36.4074 15.5994 35.8705Z" fill="#282828"/>
<path fill-rule="evenodd" clip-rule="evenodd" d="M18.7158 35.7439C18.4853 35.4051 18.2592 35.0632 18.0377 34.717C17.671 34.9066 17.3039 35.0923 16.9328 35.2657C17.1161 35.7311 17.3128 36.1877 17.5225 36.6359C17.9229 36.3478 18.3238 36.0528 18.7158 35.7439Z" fill="#282828"/>
<path fill-rule="evenodd" clip-rule="evenodd" d="M19.8505 34.8091C20.0939 34.6022 20.3329 34.3914 20.5708 34.1756C20.384 33.985 20.1962 33.7988 20.0129 33.6043C19.7824 33.7442 19.5524 33.8791 19.3219 34.0102C19.4967 34.2806 19.6711 34.547 19.8505 34.8091Z" fill="#282828"/>
<path fill-rule="evenodd" clip-rule="evenodd" d="M21.9792 32.8098C21.8635 32.734 21.7447 32.6571 21.629 32.5773C21.5098 32.6576 21.39 32.7344 21.2753 32.8098C21.39 32.932 21.5098 33.0502 21.6245 33.1694C21.7447 33.0502 21.8635 32.9324 21.9792 32.8098Z" fill="#282828"/>
<path fill-rule="evenodd" clip-rule="evenodd" d="M8.23886 24.996C7.88862 24.7763 7.54335 24.5522 7.20155 24.3236C6.89056 24.7123 6.58801 25.1107 6.30185 25.5122C6.75394 25.7146 7.21447 25.9092 7.67947 26.0954C7.85831 25.7274 8.0466 25.36 8.23886 24.996Z" fill="#282828"/>
<path fill-rule="evenodd" clip-rule="evenodd" d="M9.35566 23.0425C9.1634 22.8608 8.97163 22.6756 8.78484 22.4894C8.56625 22.7253 8.34915 22.9622 8.14049 23.1996C8.40479 23.377 8.67306 23.5548 8.9463 23.7237C9.07844 23.4952 9.21506 23.2666 9.35566 23.0425Z" fill="#282828"/>
<path fill-rule="evenodd" clip-rule="evenodd" d="M9.7988 21.4407C9.91902 21.5585 10.0378 21.6732 10.157 21.7914C10.2345 21.6732 10.3155 21.5585 10.3915 21.4407C10.315 21.326 10.2345 21.2078 10.157 21.09C10.0378 21.2078 9.91902 21.3225 9.7988 21.4407Z" fill="#282828"/>
<path fill-rule="evenodd" clip-rule="evenodd" d="M35.0152 17.885C35.3644 18.1047 35.7107 18.3288 36.051 18.5574C36.362 18.1677 36.661 17.7703 36.9507 17.3688C36.4986 17.1664 36.0381 16.9718 35.574 16.7896C35.3952 17.1531 35.2074 17.521 35.0152 17.885Z" fill="#282828"/>
<path fill-rule="evenodd" clip-rule="evenodd" d="M33.8984 19.8375C34.0896 20.0237 34.2814 20.2054 34.4692 20.3916C34.6863 20.1586 34.9039 19.9188 35.1135 19.6814C34.8492 19.504 34.581 19.3307 34.3077 19.1573C34.1711 19.3848 34.035 19.6134 33.8984 19.8375Z" fill="#282828"/>
<path fill-rule="evenodd" clip-rule="evenodd" d="M33.0955 21.7914C33.2158 21.6732 33.3345 21.5585 33.4537 21.4407C33.3345 21.3225 33.2158 21.2078 33.0955 21.09C33.019 21.2078 32.9385 21.326 32.8566 21.4407C32.9385 21.5585 33.019 21.6732 33.0955 21.7914Z" fill="#282828"/>
<path fill-rule="evenodd" clip-rule="evenodd" d="M34.418 8.76051C35.1721 8.73145 35.9233 8.73539 36.666 8.76938C36.8026 7.93598 36.8876 7.10357 36.9214 6.27904C36.0852 6.31253 35.2457 6.39676 34.4051 6.52926C34.4399 7.26414 34.4443 8.00839 34.418 8.76051Z" fill="#282828"/>
<path fill-rule="evenodd" clip-rule="evenodd" d="M31.2147 9.05309C31.7954 8.96738 32.3707 8.9004 32.946 8.84966C32.9763 8.16453 32.9763 7.48382 32.9505 6.80705C32.2858 6.95975 31.624 7.13706 30.9593 7.34049C31.0621 7.90249 31.1471 8.47335 31.2147 9.05309Z" fill="#282828"/>
<path fill-rule="evenodd" clip-rule="evenodd" d="M28.5588 9.53874C28.9637 9.45008 29.3646 9.36536 29.7695 9.28853C29.7104 8.79401 29.6418 8.30342 29.5608 7.81777C29.0958 7.99115 28.6308 8.1729 28.1698 8.37189C28.3064 8.75608 28.4356 9.14569 28.5588 9.53874Z" fill="#282828"/>
<path fill-rule="evenodd" clip-rule="evenodd" d="M27.1295 9.88944C27.0356 9.58554 26.9343 9.28114 26.8314 8.98019C26.5408 9.12007 26.2561 9.2639 25.97 9.41216C26.1021 9.6407 26.2343 9.8722 26.362 10.1047C26.6183 10.0288 26.8742 9.95741 27.1295 9.88944Z" fill="#282828"/>
<path fill-rule="evenodd" clip-rule="evenodd" d="M24.5328 10.6839C24.6649 10.6371 24.8015 10.5953 24.9347 10.5485C24.8527 10.4012 24.7722 10.2574 24.6868 10.1135C24.5417 10.1978 24.3961 10.2825 24.2521 10.3667C24.346 10.4726 24.4389 10.579 24.5328 10.6839Z" fill="#282828"/>
<path fill-rule="evenodd" clip-rule="evenodd" d="M8.83501 34.1205C8.08088 34.1495 7.33072 34.1451 6.5885 34.1116C6.45188 34.944 6.36693 35.7774 6.33315 36.602C7.16826 36.5719 8.00437 36.4872 8.84843 36.3517C8.81464 35.6169 8.80968 34.8726 8.83501 34.1205Z" fill="#282828"/>
<path fill-rule="evenodd" clip-rule="evenodd" d="M12.0379 33.8328C11.4581 33.9131 10.8818 33.9811 10.3065 34.0318C10.2772 34.717 10.2772 35.4011 10.3021 36.073C10.9678 35.9257 11.6285 35.7484 12.2902 35.5405C12.1919 34.9785 12.1069 34.4076 12.0379 33.8328Z" fill="#282828"/>
<path fill-rule="evenodd" clip-rule="evenodd" d="M14.6952 33.3423C14.2903 33.4309 13.8839 33.5156 13.4835 33.591C13.5392 34.0865 13.6112 34.5771 13.6932 35.0632C14.1572 34.8943 14.6222 34.7081 15.0827 34.5091C14.9461 34.1249 14.8184 33.7353 14.6952 33.3423Z" fill="#282828"/>
<path fill-rule="evenodd" clip-rule="evenodd" d="M17.2835 33.4688C17.1514 33.2403 17.0192 33.0078 16.8906 32.7763C16.6352 32.8522 16.3799 32.9236 16.123 32.9916C16.2169 33.296 16.3197 33.5999 16.4221 33.9008C16.7112 33.7614 16.9974 33.6171 17.2835 33.4688Z" fill="#282828"/>
<path fill-rule="evenodd" clip-rule="evenodd" d="M18.7203 32.1961C18.5836 32.2429 18.4515 32.2892 18.3154 32.3315C18.4003 32.4798 18.4813 32.6236 18.5677 32.7679C18.7118 32.6837 18.8569 32.599 18.998 32.5138C18.9041 32.4089 18.8141 32.302 18.7203 32.1961Z" fill="#282828"/>
<path fill-rule="evenodd" clip-rule="evenodd" d="M13.6842 29.3127C13.5436 29.2876 13.407 29.262 13.2659 29.2324C13.2659 29.4014 13.2615 29.5669 13.2615 29.7314C13.4284 29.7314 13.5988 29.7314 13.7647 29.7269C13.7354 29.5915 13.7096 29.4526 13.6842 29.3127Z" fill="#282828"/>
<path fill-rule="evenodd" clip-rule="evenodd" d="M11.8078 28.9113L11.0318 28.7133C10.9643 29.026 10.8952 29.3388 10.8366 29.6516C11.1555 29.6723 11.4755 29.6895 11.7994 29.7067C11.7994 29.4403 11.8034 29.1733 11.8078 28.9113Z" fill="#282828"/>
<path fill-rule="evenodd" clip-rule="evenodd" d="M7.88415 29.3048C8.37548 29.389 8.86979 29.4565 9.36907 29.5161C9.44557 29.1147 9.53053 28.7128 9.62442 28.3113L8.44751 27.9262C8.24681 28.3872 8.06001 28.8433 7.88415 29.3048Z" fill="#282828"/>
<path fill-rule="evenodd" clip-rule="evenodd" d="M7.07437 27.4183L5.47518 26.7342L4.44334 28.5005C5.09166 28.6995 5.75687 28.8728 6.43003 29.0255C6.62676 28.4887 6.84435 27.9518 7.07437 27.4183Z" fill="#282828"/>
<path fill-rule="evenodd" clip-rule="evenodd" d="M4.96845 24.865C5.30031 24.3951 5.64658 23.935 6.00874 23.4784C5.53927 23.1312 5.08321 22.7716 4.64405 22.4081C4.13185 22.8736 3.64648 23.3518 3.18545 23.8464L4.96845 24.865Z" fill="#282828"/>
<path fill-rule="evenodd" clip-rule="evenodd" d="M5.76084 21.4407C6.14536 21.7535 6.53684 22.0579 6.94222 22.3584C7.20652 22.049 7.48373 21.7446 7.76541 21.4407C7.48373 21.1408 7.20652 20.8315 6.93775 20.5231C6.53733 20.8241 6.14536 21.128 5.76084 21.4407Z" fill="#282828"/>
<path fill-rule="evenodd" clip-rule="evenodd" d="M8.9463 19.1578C8.67356 19.3311 8.40479 19.504 8.14049 19.6818C8.34915 19.9188 8.56178 20.1591 8.78484 20.3921C8.97163 20.2059 9.16389 20.0242 9.35566 19.838C9.21506 19.6139 9.08291 19.3853 8.9463 19.1578Z" fill="#282828"/>
<path fill-rule="evenodd" clip-rule="evenodd" d="M10.776 18.5574C10.7333 18.4263 10.6866 18.2953 10.6394 18.1604C10.4943 18.2406 10.3492 18.3249 10.1992 18.4052C10.2857 18.549 10.3706 18.6933 10.4556 18.8371C10.5624 18.744 10.6687 18.6504 10.776 18.5574Z" fill="#282828"/>
<path fill-rule="evenodd" clip-rule="evenodd" d="M29.5698 13.5673C29.7104 13.5934 29.847 13.6225 29.9866 13.6486C29.9866 13.4831 29.9911 13.3141 29.9911 13.1496C29.8207 13.1496 29.6547 13.1496 29.4878 13.1541C29.5141 13.2895 29.5434 13.4289 29.5698 13.5673Z" fill="#282828"/>
<path fill-rule="evenodd" clip-rule="evenodd" d="M31.4452 13.9702C31.706 14.0328 31.9613 14.1012 32.2212 14.1682C32.2897 13.8555 32.3578 13.5427 32.4179 13.2299C32.098 13.2082 31.778 13.192 31.4541 13.1792C31.4541 13.4412 31.4496 13.7072 31.4452 13.9702Z" fill="#282828"/>
<path fill-rule="evenodd" clip-rule="evenodd" d="M35.3644 13.5762C34.8785 13.492 34.3842 13.4245 33.881 13.3654C33.8045 13.7668 33.7225 14.1687 33.6286 14.5702C34.026 14.6933 34.418 14.8204 34.8065 14.9553C35.0062 14.4987 35.194 14.0372 35.3644 13.5762Z" fill="#282828"/>
<path fill-rule="evenodd" clip-rule="evenodd" d="M38.8107 14.3835C38.1623 14.181 37.4961 14.0077 36.8225 13.8594C36.6228 14.3963 36.4087 14.9287 36.1781 15.4612L37.7773 16.1507L38.8107 14.3835Z" fill="#282828"/>
<path fill-rule="evenodd" clip-rule="evenodd" d="M38.2811 18.016C37.9527 18.4845 37.6074 18.946 37.2453 19.4026C37.7147 19.7488 38.1668 20.1084 38.61 20.4763C39.1222 20.0079 39.6075 19.5292 40.0686 19.0346C39.4933 18.6751 38.9001 18.3377 38.2811 18.016Z" fill="#282828"/>
<path fill-rule="evenodd" clip-rule="evenodd" d="M36.3108 22.3584C36.7167 22.0574 37.1086 21.7535 37.4922 21.4407C37.1091 21.128 36.7172 20.8236 36.3108 20.5231C36.042 20.8315 35.7693 21.1413 35.4886 21.4407C35.7693 21.7407 36.042 22.049 36.3108 22.3584Z" fill="#282828"/>
<path fill-rule="evenodd" clip-rule="evenodd" d="M34.3077 23.7232C34.5805 23.5543 34.8492 23.377 35.1135 23.1992C34.9039 22.9622 34.6868 22.7248 34.4692 22.4889C34.2814 22.6751 34.0891 22.8603 33.8984 23.042C34.035 23.2661 34.1711 23.4952 34.3077 23.7232Z" fill="#282828"/>
<path fill-rule="evenodd" clip-rule="evenodd" d="M32.4735 24.3241C32.5207 24.4552 32.5674 24.5906 32.6146 24.7211C32.7597 24.6408 32.9038 24.5611 33.0493 24.4763C32.9683 24.3325 32.8834 24.1882 32.794 24.0444C32.6911 24.1375 32.5838 24.231 32.4735 24.3241Z" fill="#282828"/>
<path fill-rule="evenodd" clip-rule="evenodd" d="M40.3542 10.7228C39.5385 10.5367 38.7078 10.4056 37.8588 10.3204C37.7018 11.04 37.514 11.7587 37.288 12.4778C38.0257 12.6423 38.7511 12.8413 39.4585 13.0654C39.8087 12.2916 40.1063 11.5085 40.3542 10.7228Z" fill="#282828"/>
<path fill-rule="evenodd" clip-rule="evenodd" d="M36.3838 10.2155C35.7057 10.1894 35.0191 10.1894 34.3236 10.2199C34.2724 10.7859 34.2044 11.3607 34.1239 11.932C34.7037 12.0035 35.2789 12.0877 35.8468 12.1852C36.0554 11.5306 36.2343 10.8701 36.3838 10.2155Z" fill="#282828"/>
<path fill-rule="evenodd" clip-rule="evenodd" d="M32.8447 10.317C32.3503 10.3638 31.8545 10.4263 31.3558 10.4987C31.3866 10.9046 31.4114 11.3139 31.4288 11.7242C31.8426 11.7414 32.2564 11.7631 32.6658 11.7922C32.7378 11.3021 32.798 10.8071 32.8447 10.317Z" fill="#282828"/>
<path fill-rule="evenodd" clip-rule="evenodd" d="M29.1604 11.7079C29.4292 11.6991 29.693 11.6951 29.9617 11.6951C29.9488 11.3779 29.9324 11.0568 29.9061 10.7396C29.5951 10.8036 29.2796 10.8662 28.9642 10.9386C29.0317 11.1917 29.0958 11.4493 29.1604 11.7079Z" fill="#282828"/>
<path fill-rule="evenodd" clip-rule="evenodd" d="M27.5389 11.2848C27.3774 11.3272 27.2145 11.3735 27.053 11.4203C27.1176 11.5424 27.1807 11.6705 27.2408 11.7971C27.3814 11.7882 27.527 11.7799 27.6665 11.771C27.6238 11.6065 27.5816 11.4464 27.5389 11.2848Z" fill="#282828"/>
<path fill-rule="evenodd" clip-rule="evenodd" d="M11.8973 15.872C11.8883 15.7326 11.8809 15.5937 11.8719 15.4543L11.3851 15.5809C11.4278 15.7365 11.4715 15.8981 11.5182 16.0581C11.6459 15.9956 11.7691 15.936 11.8973 15.872Z" fill="#282828"/>
<path fill-rule="evenodd" clip-rule="evenodd" d="M9.49227 17.1314C9.72676 17.0004 9.95727 16.8738 10.1923 16.7428C10.1192 16.4896 10.0472 16.235 9.97814 15.9818L9.06205 16.2818C9.19867 16.5655 9.34274 16.8492 9.49227 17.1314Z" fill="#282828"/>
<path fill-rule="evenodd" clip-rule="evenodd" d="M7.67996 16.7896C7.21496 16.9713 6.75841 17.1664 6.30235 17.3688C6.5885 17.7703 6.89055 18.1677 7.20205 18.5574C7.53937 18.3288 7.88415 18.1047 8.23936 17.885C8.0471 17.5215 7.85881 17.1536 7.67996 16.7896Z" fill="#282828"/>
<path fill-rule="evenodd" clip-rule="evenodd" d="M2.8993 32.1626C3.71355 32.3443 4.54568 32.4754 5.38924 32.564C5.55169 31.841 5.73948 31.1223 5.96552 30.4081C5.22331 30.2392 4.50246 30.0446 3.79403 29.8205C3.44478 30.5899 3.1472 31.3725 2.8993 32.1626Z" fill="#282828"/>
<path fill-rule="evenodd" clip-rule="evenodd" d="M6.87019 32.666C7.54831 32.695 8.23488 32.6906 8.92891 32.666C8.98008 32.0956 9.04466 31.5242 9.12961 30.9494C8.54985 30.878 7.97357 30.7968 7.40673 30.6963C7.19708 31.3509 7.01873 32.0114 6.87019 32.666Z" fill="#282828"/>
<path fill-rule="evenodd" clip-rule="evenodd" d="M10.4094 32.564C10.9037 32.5172 11.3985 32.4591 11.8973 32.3867C11.8635 31.9764 11.8416 31.5705 11.8252 31.1563C11.4114 31.1401 10.9976 31.1184 10.5882 31.0893C10.5162 31.5838 10.4561 32.0739 10.4094 32.564Z" fill="#282828"/>
<path fill-rule="evenodd" clip-rule="evenodd" d="M14.0896 31.1775C13.8253 31.1819 13.5571 31.1864 13.2928 31.1864C13.3047 31.5036 13.3221 31.8247 13.3474 32.1419C13.6584 32.0779 13.9754 32.0143 14.2908 31.9429C14.2223 31.6897 14.1537 31.4351 14.0896 31.1775Z" fill="#282828"/>
<path fill-rule="evenodd" clip-rule="evenodd" d="M15.7136 31.5967C15.8761 31.5543 16.0381 31.508 16.196 31.4656C16.1359 31.3381 16.0713 31.2115 16.0127 31.0844C15.8677 31.0933 15.7266 31.1061 15.586 31.1135C15.6287 31.2745 15.6709 31.4356 15.7136 31.5967Z" fill="#282828"/>
<path fill-rule="evenodd" clip-rule="evenodd" d="M31.3816 27.4272L31.8675 27.3051C31.8247 27.144 31.7825 26.9834 31.7353 26.8233C31.6076 26.8859 31.4799 26.9499 31.3513 27.0085C31.3642 27.1484 31.3731 27.2878 31.3816 27.4272Z" fill="#282828"/>
<path fill-rule="evenodd" clip-rule="evenodd" d="M33.7573 25.7486C33.5267 25.8796 33.2967 26.0116 33.0617 26.1382C33.1338 26.3914 33.2068 26.646 33.2749 26.8992L34.192 26.6027C34.0514 26.316 33.9058 26.0323 33.7573 25.7486Z" fill="#282828"/>
<path fill-rule="evenodd" clip-rule="evenodd" d="M36.9507 25.5127C36.6615 25.1112 36.3625 24.7172 36.051 24.3241C35.7102 24.5527 35.3644 24.7768 35.0152 24.9965C35.2074 25.36 35.3952 25.7284 35.574 26.0963L36.9507 25.5127Z" fill="#282828"/>
<path fill-rule="evenodd" clip-rule="evenodd" d="M4.15719 26.083L2.21273 24.9585C1.67569 25.6131 1.18088 26.2899 0.737741 26.9923C1.47449 27.3765 2.24204 27.7198 3.03989 28.0193C3.38069 27.3647 3.7523 26.7169 4.15719 26.083Z" fill="#282828"/>
<path fill-rule="evenodd" clip-rule="evenodd" d="M42.5158 15.8892C41.778 15.505 41.0105 15.1617 40.2136 14.8622C39.8718 15.5168 39.5007 16.1645 39.0958 16.7985L41.0403 17.9229C41.5783 17.2669 42.0726 16.5906 42.5158 15.8892Z" fill="#282828"/>
<path fill-rule="evenodd" clip-rule="evenodd" d="M3.53917 21.4407C2.98475 20.929 2.45616 20.4005 1.95737 19.8552C1.27527 20.3453 0.613543 20.8783 0 21.4407L1.95737 23.0263C2.45616 22.4805 2.98475 21.9525 3.53917 21.4407Z" fill="#282828"/>
<path fill-rule="evenodd" clip-rule="evenodd" d="M3.18545 19.0346C3.64598 19.5292 4.13185 20.0079 4.64405 20.4719C5.08272 20.1084 5.53927 19.7488 6.00874 19.4026C5.64608 18.946 5.30031 18.4845 4.96845 18.016L3.2401 19.0011L3.18545 19.0346Z" fill="#282828"/>
<path fill-rule="evenodd" clip-rule="evenodd" d="M39.7148 21.4407C40.2683 21.9525 40.7979 22.481 41.2966 23.0263L42.5202 22.0835L43.254 21.4407L41.2966 19.8552C40.7979 20.401 40.2683 20.929 39.7148 21.4407Z" fill="#282828"/>
<path fill-rule="evenodd" clip-rule="evenodd" d="M40.0686 23.8469C39.608 23.3523 39.1222 22.8741 38.61 22.4086C38.1668 22.7765 37.7147 23.1317 37.2453 23.4789C37.6079 23.9355 37.9527 24.3956 38.2811 24.8654L40.0422 23.8631L40.0686 23.8469Z" fill="#282828"/>
<path fill-rule="evenodd" clip-rule="evenodd" d="M10.8361 13.2299C10.8952 13.5427 10.9593 13.8555 11.0313 14.1638L11.8073 13.9702C11.8029 13.7072 11.7984 13.4407 11.7984 13.1792C11.474 13.192 11.155 13.2082 10.8361 13.2299Z" fill="#282828"/>
<path fill-rule="evenodd" clip-rule="evenodd" d="M4.44334 14.3835C4.75881 14.98 5.10507 15.5676 5.47518 16.1468L7.07437 15.4617C6.84386 14.9292 6.62676 14.3968 6.43052 13.8599C5.7524 14.0082 5.09166 14.181 4.44334 14.3835Z" fill="#282828"/>
<path fill-rule="evenodd" clip-rule="evenodd" d="M31.4541 29.7023C31.7785 29.6895 32.098 29.6723 32.4179 29.6516C32.3578 29.3388 32.2902 29.026 32.2212 28.7177L31.4452 28.9113C31.4496 29.1777 31.4541 29.4408 31.4541 29.7023Z" fill="#282828"/>
<path fill-rule="evenodd" clip-rule="evenodd" d="M38.8107 28.501C38.4942 27.9055 38.1489 27.3134 37.7778 26.7347L36.1786 27.4188C36.4092 27.9523 36.6228 28.4847 36.823 29.026C37.4966 28.8733 38.1619 28.7005 38.8107 28.501Z" fill="#282828"/>
<path d="M24.7785 24.5681C26.5206 22.8409 26.5206 20.0407 24.7785 18.3135C23.0365 16.5864 20.2121 16.5864 18.4701 18.3135C16.7281 20.0407 16.7281 22.8409 18.4701 24.5681C20.2121 26.2952 23.0365 26.2952 24.7785 24.5681Z" fill="#282828"/>
<path fill-rule="evenodd" clip-rule="evenodd" d="M39.2538 25.9983L39.0953 26.0825C39.5002 26.7169 39.8713 27.3642 40.2131 28.0188C41.01 27.7188 41.7775 27.376 42.5153 26.9918C42.0721 26.2894 41.5773 25.6126 41.0393 24.958L39.2538 25.9983Z" fill="#282828"/>
<path fill-rule="evenodd" clip-rule="evenodd" d="M34.8065 27.9262C34.418 28.0616 34.026 28.1882 33.6286 28.3113C33.7225 28.7128 33.8045 29.1147 33.881 29.5161C34.3842 29.4565 34.8785 29.3895 35.3644 29.3048C35.194 28.8438 35.0062 28.3832 34.8065 27.9262Z" fill="#282828"/>
<path fill-rule="evenodd" clip-rule="evenodd" d="M56.3691 17.4734H59.6281V29.203H63.6204V17.4734H66.8789V14.1127H56.3691V17.4734Z" fill="#282828"/>
<path fill-rule="evenodd" clip-rule="evenodd" d="M97.6355 20.28C97.4497 20.3061 97.1898 20.3351 96.8634 20.3667C96.5251 20.3997 96.1639 20.4164 95.7899 20.4164C95.0347 20.4164 94.4545 20.2573 94.0655 19.9431C93.678 19.6303 93.4813 19.053 93.4813 18.2265V14.1127H89.489V19.0648C89.489 19.9682 89.6112 20.7331 89.8527 21.338C90.0946 21.9443 90.4354 22.4339 90.8656 22.7939C91.2959 23.154 91.824 23.4106 92.435 23.5569C93.0431 23.7032 93.7187 23.7771 94.4426 23.7771C95.0854 23.7771 95.7153 23.75 96.3155 23.6973C96.8937 23.6465 97.3379 23.6007 97.636 23.5613V29.203H101.649V14.1127H97.636L97.6355 20.28Z" fill="#282828"/>
<path fill-rule="evenodd" clip-rule="evenodd" d="M119.611 29.203V14.1127H115.619V19.9174H109.976V14.1127H105.983V29.203H109.976V23.0387H115.619V29.203H119.611Z" fill="#282828"/>
<path fill-rule="evenodd" clip-rule="evenodd" d="M128.338 14.1127L122.498 29.1695L122.485 29.203H126.722L127.769 26.59H133.166L134.151 29.203H138.409L132.683 14.1285L132.677 14.1127H128.338ZM128.872 23.5485L130.485 18.8102H130.49L132.082 23.5485H128.872Z" fill="#282828"/>
<path fill-rule="evenodd" clip-rule="evenodd" d="M153.463 29.203V14.1127H147.705C145.963 14.1127 144.607 14.5447 143.675 15.3958C142.742 16.2479 142.269 17.435 142.269 18.925C142.269 20.0554 142.541 21.0365 143.078 21.8409C143.609 22.6383 144.407 23.1722 145.451 23.4283L141.26 29.2025H146.089L149.409 23.7165H149.47V29.2025L153.463 29.203ZM148.751 21.0744C147.153 21.0744 146.342 20.4317 146.342 19.1638C146.342 17.896 147.153 17.2532 148.751 17.2532H149.471V21.074L148.751 21.0744Z" fill="#282828"/>
<path fill-rule="evenodd" clip-rule="evenodd" d="M190.425 17.4734H195.766V29.203H199.759V14.1127H186.432V29.203H190.425V17.4734Z" fill="#282828"/>
<path fill-rule="evenodd" clip-rule="evenodd" d="M202.927 17.4734H206.186V29.203H210.179V17.4734H213.437V14.1127H202.927V17.4734Z" fill="#282828"/>
<path fill-rule="evenodd" clip-rule="evenodd" d="M226.641 19.9869L226.643 29.203H230.636V14.1127H226.655L220.62 23.3087L220.618 14.1127H216.626V29.203H220.607L226.641 19.9869Z" fill="#282828"/>
<path fill-rule="evenodd" clip-rule="evenodd" d="M248.688 14.1127H243.734L238.963 20.2883V14.1127H234.971V29.203H238.963V22.7013L244.049 29.1937L244.056 29.203H249.23L242.632 21.2592L248.688 14.1127Z" fill="#282828"/>
<path fill-rule="evenodd" clip-rule="evenodd" d="M263.737 29.1868L263.743 29.203H268L262.274 14.1285L262.268 14.1127H257.929L252.089 29.1695L252.076 29.203H256.313L257.36 26.59H262.757L263.737 29.1868ZM258.464 23.548L260.076 18.8097H260.081L261.673 23.548H258.464Z" fill="#282828"/>
<path fill-rule="evenodd" clip-rule="evenodd" d="M179.91 16.4105C179.2 15.7263 178.314 15.1693 177.277 14.755C176.239 14.3408 175.042 14.131 173.717 14.131C172.552 14.131 171.476 14.3442 170.518 14.7644C169.56 15.185 168.728 15.751 168.046 16.4469C167.363 17.1429 166.827 17.9556 166.452 18.8624C166.077 19.7697 165.886 20.7164 165.886 21.6759C165.886 22.6959 166.086 23.6761 166.482 24.5893C166.877 25.502 167.437 26.3113 168.147 26.9959C168.857 27.6805 169.71 28.2283 170.68 28.6243C171.651 29.0203 172.734 29.2212 173.898 29.2212C174.929 29.2212 175.951 29.0538 176.934 28.7238C177.918 28.3938 178.803 27.8978 179.567 27.2496C180.331 26.6009 180.952 25.7911 181.414 24.843C181.876 23.8943 182.111 22.7925 182.111 21.568C182.111 20.608 181.92 19.6702 181.545 18.7811C181.17 17.8926 180.62 17.0946 179.91 16.4105ZM173.998 25.8862C171.657 25.8862 169.752 23.9977 169.752 21.6759C169.752 19.354 171.657 17.4655 173.998 17.4655C176.34 17.4655 178.245 19.354 178.245 21.6759C178.245 23.9977 176.34 25.8862 173.998 25.8862Z" fill="#282828"/>
<path fill-rule="evenodd" clip-rule="evenodd" d="M84.0933 16.3947C83.3834 15.7096 82.4976 15.152 81.4598 14.7373C80.4225 14.3226 79.2247 14.1127 77.8998 14.1127C76.7353 14.1127 75.6592 14.326 74.7009 14.7466C73.7431 15.1678 72.9114 15.7347 72.2288 16.4312C71.5458 17.1281 71.0097 17.9418 70.6346 18.8496C70.2595 19.7579 70.0693 20.7055 70.0693 21.667C70.0693 22.6885 70.2695 23.6697 70.6649 24.5839C71.0599 25.4976 71.6203 26.3083 72.3302 26.9934C73.0401 27.6786 73.8926 28.2273 74.8629 28.6238C75.8341 29.0203 76.9166 29.2217 78.0811 29.2217C79.1124 29.2217 80.1339 29.0543 81.117 28.7238C82.1012 28.3933 82.987 27.8968 83.7505 27.2476C84.5141 26.5984 85.1356 25.7877 85.5976 24.838C86.0596 23.8884 86.2941 22.7851 86.2941 21.5591C86.2941 20.5982 86.1039 19.6593 85.7288 18.7688C85.3537 17.8788 84.8032 17.0799 84.0933 16.3947ZM78.1814 25.8862C75.84 25.8862 73.9353 23.9977 73.9353 21.6759C73.9353 19.354 75.84 17.4655 78.1814 17.4655C80.5229 17.4655 82.4276 19.354 82.4276 21.6759C82.4276 23.9977 80.5229 25.8862 78.1814 25.8862Z" fill="#282828"/>
</svg>
