<svg width="27" height="23" viewBox="0 0 27 23" fill="none" xmlns="http://www.w3.org/2000/svg">
<path fill-rule="evenodd" clip-rule="evenodd" d="M27 15.1316C27 19.4772 23.5837 23 19.3696 23C15.5546 23 12.3935 20.113 11.8289 16.3421C11.7698 15.9475 11.7391 15.5432 11.7391 15.1316C11.7391 14.2869 11.8682 13.4732 12.1072 12.7105C12.2387 12.2905 12.4037 11.8859 12.5987 11.5C13.8712 8.98224 16.4257 7.26316 19.3696 7.26316C23.5837 7.26316 27 10.786 27 15.1316ZM19.3696 21.7895C22.9354 21.7895 25.8261 18.8086 25.8261 15.1316C25.8261 11.4545 22.9354 8.47368 19.3696 8.47368C18.9687 8.47368 18.5763 8.51136 18.1957 8.58347C16.4161 8.92054 14.8918 10.01 13.9445 11.5202C13.7106 11.893 13.5119 12.2914 13.3532 12.7105C13.069 13.4609 12.913 14.2775 12.913 15.1316C12.913 15.545 12.9496 15.9496 13.0195 16.3421C13.328 18.0742 14.2866 19.5718 15.6248 20.5559C16.681 21.3326 17.9735 21.7895 19.3696 21.7895Z" fill="white"/>
<path fill-rule="evenodd" clip-rule="evenodd" d="M18.1957 10.442V17.5526C18.1957 18.3212 17.9178 19.0228 17.4601 19.5566C18.0435 19.8247 18.6896 19.9737 19.3696 19.9737C21.9629 19.9737 24.0652 17.8058 24.0652 15.1316C24.0652 12.4574 21.9629 10.2895 19.3696 10.2895C18.9642 10.2895 18.5709 10.3424 18.1957 10.442ZM19.3696 12.1053C19.6937 12.1053 19.9565 12.3762 19.9565 12.7105V15.1103L21.456 16.1411C21.7257 16.3266 21.7986 16.7023 21.6188 16.9805C21.439 17.2586 21.0746 17.3338 20.8049 17.1483L19.044 15.9378C18.8807 15.8256 18.7826 15.6366 18.7826 15.4342V12.7105C18.7826 12.3762 19.0454 12.1053 19.3696 12.1053Z" fill="white"/>
<path fill-rule="evenodd" clip-rule="evenodd" d="M0 6.05263C0 4.58852 1.00825 3.36725 2.34783 3.08685C2.53748 3.04716 2.73377 3.02632 2.93478 3.02632H15.2609C15.4619 3.02632 15.6582 3.04716 15.8478 3.08685C17.1874 3.36725 18.1957 4.58853 18.1957 6.05263V8.58347C16.4161 8.92054 14.8918 10.01 13.9445 11.5202C13.9445 11.5202 13.1747 11.5529 13.1747 11.8333C13.1747 12.1676 13.4989 12.5 13.1747 12.5L13.3532 12.7105C13.069 13.4609 12.913 14.2775 12.913 15.1316L12.5241 15.3333C12.8483 15.3333 12.3614 15.3324 12.3614 15.6667C12.3614 16.0009 12.3603 15.8333 12.0361 15.8333L13.0195 16.3421C13.328 18.0742 14.2866 19.5718 15.6248 20.5559C15.5056 20.5711 15.3841 20.5789 15.2609 20.5789H2.93478C1.31395 20.5789 0 19.224 0 17.5526V6.05263ZM18.1957 10.442V17.5526C18.1957 18.3212 17.9178 19.0228 17.4601 19.5566C15.8184 18.8021 14.6739 17.1047 14.6739 15.1316C14.6739 12.8754 16.1704 10.9795 18.1957 10.442ZM2.93478 8.47368C2.93478 8.13941 3.19757 7.86842 3.52174 7.86842L11.7391 7.86842C12.0633 7.86842 12.3261 8.13941 12.3261 8.47369C12.3261 8.80796 12.0633 9.07895 11.7391 9.07895L3.52174 9.07895C3.19757 9.07895 2.93478 8.80796 2.93478 8.47368ZM3.52174 11.5C3.19757 11.5 2.93478 11.771 2.93478 12.1053C2.93478 12.4395 3.19757 12.7105 3.52174 12.7105H12.1072C12.2387 12.2905 12.4037 11.8859 12.5987 11.5H3.52174ZM2.93478 15.7368C2.93478 15.4026 3.19757 15.1316 3.52174 15.1316H11.7391C11.7391 15.5432 11.7698 15.9475 11.8289 16.3421H3.52174C3.19757 16.3421 2.93478 16.0711 2.93478 15.7368Z" fill="white"/>
<path d="M5.28261 1.21053C6.25511 1.21053 7.04348 2.02348 7.04348 3.02632H8.21739C8.21739 1.35493 6.90344 0 5.28261 0C3.66177 0 2.34783 1.35493 2.34783 3.02632V3.08685C2.53748 3.04716 2.73377 3.02632 2.93478 3.02632H3.52174C3.52174 2.02348 4.31011 1.21053 5.28261 1.21053Z" fill="white"/>
<path d="M12.913 1.21053C13.8855 1.21053 14.6739 2.02348 14.6739 3.02632H15.2609C15.4619 3.02632 15.6582 3.04716 15.8478 3.08685V3.02632C15.8478 1.35493 14.5339 0 12.913 0C11.2922 0 9.97826 1.35493 9.97826 3.02632H11.1522C11.1522 2.02348 11.9405 1.21053 12.913 1.21053Z" fill="white"/>
</svg>
