<svg width="9" height="9" viewBox="0 0 9 9" fill="none" xmlns="http://www.w3.org/2000/svg">
<path fill-rule="evenodd" clip-rule="evenodd" d="M0.292894 0.292893C0.683418 -0.0976311 1.31658 -0.0976311 1.70711 0.292893L4.5 3.08579L7.29287 0.292916C7.68339 -0.0976081 8.31656 -0.0976081 8.70708 0.292916C9.09761 0.683441 9.09761 1.31661 8.70708 1.70713L5.91421 4.5L8.70708 7.29287C9.09761 7.68339 9.09761 8.31656 8.70708 8.70708C8.31656 9.09761 7.68339 9.09761 7.29287 8.70708L4.5 5.91421L1.70711 8.70711C1.31658 9.09763 0.683417 9.09763 0.292893 8.70711C-0.0976311 8.31658 -0.0976311 7.68342 0.292893 7.29289L3.08579 4.5L0.292894 1.70711C-0.0976305 1.31658 -0.0976305 0.683417 0.292894 0.292893Z" fill="#BFC2C8"/>
</svg>
