<svg width="32" height="20" viewBox="0 0 32 20" fill="none" xmlns="http://www.w3.org/2000/svg">
<g clip-path="url(#clip0_1_493)">
<path d="M20.7821 10C20.7821 12.6281 18.6394 14.7586 15.9961 14.7586C13.3529 14.7586 11.2101 12.6281 11.2101 10C11.2101 7.37189 13.3529 5.24138 15.9961 5.24138C18.6394 5.24138 20.7821 7.37189 20.7821 10Z" fill="#282828"/>
<path fill-rule="evenodd" clip-rule="evenodd" d="M15.9962 20C21.4424 20 29.4737 16.0837 31.8897 10.5292C32.0368 10.1913 32.0368 9.80873 31.8897 9.47084C29.4737 3.91631 21.4424 0 15.9962 0C10.5565 0 2.5377 3.90691 0.111393 9.45082C-0.0417175 9.8005 -0.0370777 10.1977 0.125858 10.543C2.56963 15.7194 10.5674 20 15.9962 20ZM15.9962 17.1034C19.9899 17.1034 23.2276 13.9231 23.2276 10C23.2276 6.07687 19.9899 2.89655 15.9962 2.89655C12.0025 2.89655 8.76475 6.07687 8.76475 10C8.76475 13.9231 12.0025 17.1034 15.9962 17.1034Z" fill="#282828"/>
</g>
<defs>
<clipPath id="clip0_1_493">
<rect width="32" height="20" fill="white"/>
</clipPath>
</defs>
</svg>
