<svg width="30" height="24" viewBox="0 0 30 24" fill="none" xmlns="http://www.w3.org/2000/svg">
<path d="M17.1111 17.4451C17.1111 17.4451 17.1111 17.4419 17.1111 17.4403C17.1111 16.6009 17.266 15.7984 17.5482 15.0607C17.3956 14.9665 14.8775 13.46 12.4294 15.0031C12.7243 15.7527 12.8872 16.5707 12.8889 17.4272C14.6965 15.4505 16.6334 17.0031 17.1111 17.4451Z" fill="#282828"/>
<path d="M5.63771 2.9693C5.14669 3.45111 4.85469 4.07734 4.74524 4.48019L3.73143 9.05944C2.78642 9.3762 1.91325 9.85395 1.14323 10.4608L2.58265 3.95915C2.58582 3.94482 2.58926 3.93056 2.59298 3.91637C2.78397 3.18733 3.25722 2.16328 4.09544 1.34079C4.96554 0.487015 6.23299 -0.14555 7.89202 0.0291431C8.50241 0.0934165 8.94604 0.649191 8.8829 1.2705C8.81976 1.89181 8.27375 2.34338 7.66335 2.2791C6.74461 2.18236 6.10464 2.51113 5.63771 2.9693Z" fill="#282828"/>
<path d="M24.1401 2.9693C24.6311 3.45111 24.9231 4.07734 25.0325 4.48019L26.0464 9.05944C26.9914 9.3762 27.8645 9.85395 28.6345 10.4608L27.1951 3.95915C27.192 3.94482 27.1885 3.93056 27.1848 3.91637C26.9938 3.18733 26.5206 2.16328 25.6823 1.34079C24.8122 0.487015 23.5448 -0.14555 21.8858 0.0291431C21.2754 0.0934165 20.8317 0.649191 20.8949 1.2705C20.958 1.89181 21.504 2.34338 22.1144 2.2791C23.0332 2.18236 23.6731 2.51113 24.1401 2.9693Z" fill="#282828"/>
<path fill-rule="evenodd" clip-rule="evenodd" d="M12.8889 17.4403C12.8889 21.0631 10.0036 24 6.44444 24C2.88528 24 0 21.0631 0 17.4403C0 13.8175 2.88528 10.8806 6.44444 10.8806C9.15749 10.8806 11.479 12.5871 12.4294 15.0031C12.7243 15.7527 12.8872 16.5707 12.8889 17.4272L12.8889 17.4403ZM6.36364 14.7692C6.00549 14.7692 5.65084 14.8409 5.31996 14.98C4.98907 15.1192 4.68841 15.3232 4.43516 15.5803C4.18191 15.8375 3.98102 16.1427 3.84397 16.4787C3.70691 16.8147 3.63636 17.1748 3.63636 17.5385C3.63636 17.9208 3.3311 18.2308 2.95455 18.2308C2.57799 18.2308 2.27273 17.9208 2.27273 17.5385C2.27273 16.993 2.37854 16.4528 2.58413 15.9489C2.78972 15.4449 3.09105 14.987 3.47093 14.6012C3.8508 14.2155 4.30178 13.9096 4.79812 13.7008C5.29445 13.4921 5.82641 13.3846 6.36364 13.3846C6.7402 13.3846 7.04546 13.6946 7.04546 14.0769C7.04546 14.4593 6.7402 14.7692 6.36364 14.7692Z" fill="#282828"/>
<path fill-rule="evenodd" clip-rule="evenodd" d="M30 17.4403C30 21.0631 27.1147 24 23.5556 24C19.998 24 17.1137 21.0657 17.1111 17.4451L17.1111 17.4403C17.1111 16.6009 17.266 15.7984 17.5482 15.0607C18.4843 12.6142 20.821 10.8806 23.5556 10.8806C27.1147 10.8806 30 13.8175 30 17.4403ZM23.6364 14.7692C23.2782 14.7692 22.9236 14.8409 22.5927 14.98C22.2618 15.1192 21.9611 15.3232 21.7079 15.5803C21.4546 15.8375 21.2538 16.1427 21.1167 16.4787C20.9796 16.8147 20.9091 17.1748 20.9091 17.5385C20.9091 17.9208 20.6038 18.2308 20.2273 18.2308C19.8507 18.2308 19.5455 17.9208 19.5455 17.5385C19.5455 16.993 19.6513 16.4528 19.8569 15.9489C20.0624 15.4449 20.3638 14.987 20.7437 14.6012C21.1235 14.2155 21.5745 13.9096 22.0708 13.7008C22.5672 13.4921 23.0991 13.3846 23.6364 13.3846C24.0129 13.3846 24.3182 13.6946 24.3182 14.0769C24.3182 14.4593 24.0129 14.7692 23.6364 14.7692Z" fill="#282828"/>
</svg>
