<svg width="24" height="24" viewBox="0 0 24 24" fill="none" xmlns="http://www.w3.org/2000/svg">
<path d="M24 12C24 18.6274 18.6274 24 12 24C5.37258 24 0 18.6274 0 12C0 5.37258 5.37258 0 12 0C18.6274 0 24 5.37258 24 12Z" fill="#2B8B7C"/>
<path d="M13.476 5.78358C13.476 6.5987 12.8152 7.25949 12.0001 7.25949C11.185 7.25949 10.5242 6.5987 10.5242 5.78358C10.5242 4.96846 11.185 4.30768 12.0001 4.30768C12.8152 4.30768 13.476 4.96846 13.476 5.78358Z" fill="white"/>
<path fill-rule="evenodd" clip-rule="evenodd" d="M11.9998 19.6924C11.1848 19.6924 10.5242 19.0358 10.5242 18.2258L10.5242 11.0986C10.5242 10.2886 11.1849 9.632 11.9998 9.632C12.8147 9.632 13.4754 10.2886 13.4754 11.0986V18.2258C13.4754 19.0358 12.8147 19.6924 11.9998 19.6924Z" fill="white"/>
</svg>
