<svg width="25" height="32" viewBox="0 0 25 32" fill="none" xmlns="http://www.w3.org/2000/svg">
<path d="M14.1631 3.73276C14.6177 3.28867 15.3548 3.28867 15.8094 3.73276L18.5531 6.41303C19.0077 6.85711 19.0077 7.57711 18.5531 8.0212L12.752 13.6881C12.2974 14.1321 11.5604 14.1321 11.1058 13.6881L8.36201 11.0078C7.90741 10.5637 7.90741 9.84371 8.36201 9.39962L14.1631 3.73276Z" fill="#2B8B7C"/>
<path d="M19.6055 0.20618C19.3242 -0.0687266 18.8678 -0.0687266 18.5865 0.20618L18.3351 0.451777C18.0536 0.726684 18.0536 1.1724 18.3351 1.44731L18.6907 1.7944L16.8484 3.59409L18.6952 5.39821L20.5375 3.59852L20.8928 3.94583C21.1741 4.22074 21.6305 4.22074 21.9118 3.94583L22.1632 3.70023C22.4447 3.42533 22.4447 2.97961 22.1632 2.7047L19.6055 0.20618Z" fill="#2B8B7C"/>
<path d="M7.43726 11.8916L10.2012 14.5916L9.8757 14.9096C9.55098 15.2268 9.02452 15.2268 8.6998 14.9096L7.11173 13.3583C6.78701 13.0411 6.78701 12.5268 7.11173 12.2096L7.43726 11.8916Z" fill="#2B8B7C"/>
<path d="M0 18.3072C0 17.9483 0.297815 17.6574 0.665188 17.6574H9.31263C9.68 17.6574 9.97782 17.9483 9.97782 18.3072V18.957C9.97782 19.914 9.18364 20.6898 8.20398 20.6898H1.77383C0.794172 20.6898 0 19.914 0 18.957V18.3072Z" fill="#2B8B7C"/>
<path d="M5.44339 24.372C4.76065 23.6431 4.17713 22.8241 3.71375 21.9352H8.34662C9.70081 23.3356 11.6196 24.2095 13.7472 24.2095C17.8496 24.2095 21.1752 20.9609 21.1752 16.9535C21.1752 14.3232 19.7426 12.0199 17.598 10.7473L20.3176 8.02843C23.1536 10.0243 25 13.2782 25 16.9535C25 19.8126 23.8826 22.4167 22.0511 24.372H22.5055C23.8832 24.372 25 25.4629 25 26.8087V27.4585C25 27.7576 24.7518 28 24.4457 28H3.04878C2.74263 28 2.49445 27.7576 2.49445 27.4585V26.8087C2.49445 25.4629 3.61126 24.372 4.98891 24.372H5.44339Z" fill="#2B8B7C"/>
</svg>
