<svg width="21" height="21" viewBox="0 0 21 21" fill="none" xmlns="http://www.w3.org/2000/svg">
<path d="M10.5 21C9.065 21 7.70875 20.7242 6.43125 20.1726C5.15375 19.621 4.03795 18.8685 3.08385 17.9151C2.13045 16.9617 1.37795 15.8462 0.826351 14.5687C0.274751 13.2912 -0.000698669 11.935 1.3308e-06 10.5C1.3308e-06 9.0475 0.275801 7.6867 0.827401 6.4176C1.379 5.1485 2.1315 4.0376 3.0849 3.0849C4.0383 2.1308 5.1534 1.3783 6.4302 0.8274C7.707 0.2765 9.0636 0.0007 10.5 0C11.9525 0 13.3133 0.2758 14.5824 0.8274C15.8515 1.379 16.9624 2.1315 17.9151 3.0849C18.8692 4.0383 19.6217 5.14955 20.1726 6.41865C20.7235 7.68775 20.9993 9.0482 21 10.5C21 11.935 20.7242 13.2912 20.1726 14.5687C19.621 15.8462 18.8685 16.962 17.9151 17.9161C16.9617 18.8695 15.8505 19.622 14.5814 20.1736C13.3123 20.7252 11.9518 21.0007 10.5 21ZM10.5 18.8475C10.955 18.2175 11.3488 17.5613 11.6813 16.8787C12.0138 16.1963 12.285 15.47 12.495 14.7H8.505C8.715 15.47 8.98625 16.1963 9.31875 16.8787C9.65125 17.5613 10.045 18.2175 10.5 18.8475ZM7.77 18.4275C7.455 17.85 7.1792 17.2504 6.9426 16.6288C6.706 16.0072 6.5093 15.3643 6.3525 14.7H3.255C3.7625 15.575 4.39705 16.3362 5.15865 16.9837C5.92025 17.6312 6.7907 18.1125 7.77 18.4275ZM13.23 18.4275C14.21 18.1125 15.0808 17.6312 15.8424 16.9837C16.604 16.3362 17.2382 15.575 17.745 14.7H14.6475C14.49 15.365 14.2933 16.0083 14.0574 16.6299C13.8215 17.2515 13.5457 17.8507 13.23 18.4275ZM2.3625 12.6H5.9325C5.88 12.25 5.84045 11.9042 5.81385 11.5626C5.78725 11.221 5.7743 10.8668 5.775 10.5C5.775 10.1325 5.7883 9.7783 5.8149 9.4374C5.8415 9.0965 5.8807 8.7507 5.9325 8.4H2.3625C2.275 8.75 2.2092 9.0958 2.1651 9.4374C2.121 9.779 2.0993 10.1332 2.1 10.5C2.1 10.8675 2.12205 11.2217 2.16615 11.5626C2.21025 11.9035 2.2757 12.2493 2.3625 12.6ZM8.0325 12.6H12.9675C13.02 12.25 13.0596 11.9042 13.0862 11.5626C13.1128 11.221 13.1257 10.8668 13.125 10.5C13.125 10.1325 13.1117 9.7783 13.0851 9.4374C13.0585 9.0965 13.0193 8.7507 12.9675 8.4H8.0325C7.98 8.75 7.94045 9.0958 7.91385 9.4374C7.88725 9.779 7.8743 10.1332 7.875 10.5C7.875 10.8675 7.8883 11.2217 7.9149 11.5626C7.9415 11.9035 7.9807 12.2493 8.0325 12.6ZM15.0675 12.6H18.6375C18.725 12.25 18.7908 11.9042 18.8349 11.5626C18.879 11.221 18.9007 10.8668 18.9 10.5C18.9 10.1325 18.878 9.7783 18.8339 9.4374C18.7898 9.0965 18.7243 8.7507 18.6375 8.4H15.0675C15.12 8.75 15.1595 9.0958 15.1861 9.4374C15.2127 9.779 15.2257 10.1332 15.225 10.5C15.225 10.8675 15.2117 11.2217 15.1851 11.5626C15.1585 11.9035 15.1193 12.2493 15.0675 12.6ZM14.6475 6.3H17.745C17.2375 5.425 16.6033 4.66375 15.8424 4.01625C15.0815 3.36875 14.2107 2.8875 13.23 2.5725C13.545 3.15 13.8208 3.74955 14.0574 4.37115C14.294 4.99275 14.4907 5.6357 14.6475 6.3ZM8.505 6.3H12.495C12.285 5.53 12.0138 4.80375 11.6813 4.12125C11.3488 3.43875 10.955 2.7825 10.5 2.1525C10.045 2.7825 9.65125 3.43875 9.31875 4.12125C8.98625 4.80375 8.715 5.53 8.505 6.3ZM3.255 6.3H6.3525C6.51 5.635 6.70705 4.9917 6.94365 4.3701C7.18025 3.7485 7.4557 3.1493 7.77 2.5725C6.79 2.8875 5.9192 3.36875 5.1576 4.01625C4.396 4.66375 3.7618 5.425 3.255 6.3Z" fill="#282828"/>
</svg>
