<svg width="28" height="22" viewBox="0 0 28 22" fill="none" xmlns="http://www.w3.org/2000/svg">
<g clip-path="url(#clip0_1_483)">
<path d="M6.88945 2.41523C7.67779 1.06501 6.64253 -0.64756 5.38005 0.248824C2.12901 2.55713 0 6.40579 0 10.7636C0 14.7195 1.75435 18.2558 4.50982 20.6012C5.69185 21.6073 6.86885 19.993 6.19852 18.5766C5.13622 16.332 4.54054 13.8128 4.54054 11.1511C4.54054 7.95806 5.39778 4.97006 6.88945 2.41523Z" fill="#282828"/>
<path fill-rule="evenodd" clip-rule="evenodd" d="M17.4054 20.4502C22.4207 20.4502 26.4865 16.2868 26.4865 11.1511C26.4865 6.01539 22.4207 1.85207 17.4054 1.85207C12.3901 1.85207 8.32432 6.01539 8.32432 11.1511C8.32432 16.2868 12.3901 20.4502 17.4054 20.4502ZM17.4054 22C23.2566 22 28 17.1428 28 11.1511C28 5.15944 23.2566 0.30223 17.4054 0.30223C11.5542 0.30223 6.81081 5.15944 6.81081 11.1511C6.81081 17.1428 11.5542 22 17.4054 22Z" fill="#282828"/>
<path d="M9.83784 18.7438C11.7103 16.787 12.8649 14.1071 12.8649 11.1511C12.8649 8.19509 11.7103 5.51521 9.83784 3.55847C11.7608 1.54902 14.4409 0.30223 17.4054 0.30223C23.2566 0.30223 28 5.15944 28 11.1511C28 17.1428 23.2566 22 17.4054 22C14.4409 22 11.7608 20.7532 9.83784 18.7438Z" fill="#282828"/>
</g>
<defs>
<clipPath id="clip0_1_483">
<rect width="28" height="22" fill="white"/>
</clipPath>
</defs>
</svg>
