<svg width="28" height="28" viewBox="0 0 28 28" fill="none" xmlns="http://www.w3.org/2000/svg">
<path d="M26.8371 20.7728C26.6155 22.4565 25.7886 24.0021 24.5108 25.1207C23.233 26.2393 21.5917 26.8546 19.8934 26.8516C10.0272 26.8516 2.00001 18.8244 2.00001 8.95825C1.99697 7.25999 2.61222 5.6187 3.73087 4.34091C4.84951 3.06312 6.39505 2.23622 8.07881 2.01466C8.50459 1.96267 8.93576 2.04978 9.30797 2.26298C9.68018 2.47618 9.97345 2.80403 10.144 3.19761L12.7684 9.05642V9.07133C12.899 9.3726 12.9529 9.70152 12.9254 10.0287C12.8978 10.3559 12.7897 10.6712 12.6106 10.9464C12.5882 10.9799 12.5646 11.011 12.5397 11.0421C12.5397 11.0421 9.76129 13.6104 9.95265 14.1088C10.144 14.6072 14.2368 18.8931 14.7777 18.894C15.3185 18.8949 17.8021 16.3206 17.8021 16.3206C17.8318 16.2956 17.863 16.2724 17.8953 16.251C18.1703 16.0676 18.4867 15.9557 18.8158 15.9253C19.145 15.8949 19.4765 15.9471 19.7804 16.0771L19.7965 16.0845L25.6504 18.7076C26.0447 18.8776 26.3733 19.1706 26.5872 19.5428C26.8011 19.9151 26.8888 20.3466 26.8371 20.7728Z" stroke="#282828" stroke-width="2.1"/>
</svg>
