<svg width="19" height="19" viewBox="0 0 19 19" fill="none" xmlns="http://www.w3.org/2000/svg">
<path opacity="0.5" d="M18.1781 18.1781C17.7242 18.632 16.9882 18.632 16.5343 18.1781L12.0939 13.7377C11.5068 14.2074 10.8317 14.5792 10.0685 14.8532C9.30525 15.1271 8.49312 15.2641 7.63207 15.2641C5.499 15.2641 3.69392 14.5252 2.21682 13.0473C0.739723 11.5694 0.000782776 9.76435 0 7.63207C0 5.499 0.738941 3.69392 2.21682 2.21682C3.6947 0.739723 5.49978 0.000782776 7.63207 0C9.76513 0 11.5702 0.738941 13.0473 2.21682C14.5244 3.6947 15.2634 5.49978 15.2641 7.63207C15.2641 8.49312 15.1271 9.30525 14.8532 10.0685C14.5792 10.8317 14.2074 11.5068 13.7377 12.0939L18.1781 16.5343C18.632 16.9882 18.632 17.7242 18.1781 18.1781ZM7.63207 12.9158C9.09977 12.9158 10.3475 12.4019 11.3753 11.3741C12.4031 10.3463 12.9166 9.09899 12.9158 7.63207C12.9158 6.16436 12.4019 4.91662 11.3741 3.88883C10.3463 2.86105 9.09899 2.34755 7.63207 2.34833C6.16436 2.34833 4.91662 2.86222 3.88883 3.89001C2.86105 4.91779 2.34755 6.16514 2.34833 7.63207C2.34833 9.09977 2.86222 10.3475 3.89001 11.3753C4.91779 12.4031 6.16514 12.9166 7.63207 12.9158Z" fill="#282828"/>
</svg>
