<svg width="22" height="18" viewBox="0 0 22 18" fill="none" xmlns="http://www.w3.org/2000/svg">
<path fill-rule="evenodd" clip-rule="evenodd" d="M5.5 0L10.7071 5.40891C11.0976 5.81457 11.0976 6.47227 10.7071 6.87793C10.3166 7.28359 9.68342 7.28359 9.29289 6.87793L6.5 3.9768V16.531C6.5 17.1047 6.05228 17.5697 5.5 17.5697C4.94772 17.5697 4.5 17.1047 4.5 16.531V3.9768L1.70711 6.87793C1.31658 7.28359 0.683417 7.28359 0.292893 6.87793C-0.0976311 6.47227 -0.0976311 5.81457 0.292893 5.40891L5.5 0ZM16.5 0.430267C17.0523 0.430267 17.5 0.895333 17.5 1.46902V14.0232L20.2929 11.1221C20.6834 10.7164 21.3166 10.7164 21.7071 11.1221C22.0976 11.5277 22.0976 12.1854 21.7071 12.5911L16.5 18L11.2929 12.5911C10.9024 12.1854 10.9024 11.5277 11.2929 11.1221C11.6834 10.7164 12.3166 10.7164 12.7071 11.1221L15.5 14.0232V1.46902C15.5 0.895333 15.9477 0.430267 16.5 0.430267Z" fill="#282828"/>
</svg>
