<svg width="401" height="393" viewBox="0 0 401 393" fill="none" xmlns="http://www.w3.org/2000/svg">
<g opacity="0.5">
<path fill-rule="evenodd" clip-rule="evenodd" d="M76.0947 -86C68.7317 -97.6578 61.3524 -108.971 55.0947 -121C40.4234 -115.488 26.6424 -110.06 13.0947 -103C21.2434 -90.1112 30.2195 -77.0561 40.0947 -65L76.0947 -86Z" fill="#2B8B7C"/>
<path fill-rule="evenodd" clip-rule="evenodd" d="M109.095 -165C105.02 -178.206 102 -191.713 99.0947 -205C83.5739 -203.371 68.0675 -200.421 53.0947 -197C57.6532 -182.563 62.6726 -168.219 69.0947 -154C82.1217 -158.118 95.5197 -161.977 109.095 -165Z" fill="#2B8B7C"/>
<path fill-rule="evenodd" clip-rule="evenodd" d="M685.095 164C689.251 177.124 693.208 190.794 696.095 204C711.716 202.371 727.104 199.421 742.095 196C737.536 181.563 731.535 167.147 725.095 153C712.086 157.118 698.67 160.895 685.095 164Z" fill="#2B8B7C"/>
<path fill-rule="evenodd" clip-rule="evenodd" d="M162.095 -234C161.629 -247.74 161.391 -261.496 162.095 -275C146.574 -277.426 131.451 -278.375 116.095 -279C116.716 -263.848 118.592 -248.396 121.095 -233C134.743 -233.697 148.227 -234.462 162.095 -234Z" fill="#2B8B7C"/>
<path fill-rule="evenodd" clip-rule="evenodd" d="M126.095 -207C128.826 -194.971 132.24 -183.029 136.095 -171C146.518 -172.792 156.434 -173.769 167.095 -175C165.533 -185.581 164.953 -196.6 164.095 -207C151.324 -207.561 138.555 -207.48 126.095 -207Z" fill="#2B8B7C"/>
<path fill-rule="evenodd" clip-rule="evenodd" d="M155.095 -120L176.095 -127C174.368 -134.377 173.502 -141.623 172.095 -149C162.923 -147.905 153.13 -146.466 144.095 -145C147.329 -136.528 151.486 -128.399 155.095 -120Z" fill="#2B8B7C"/>
<path fill-rule="evenodd" clip-rule="evenodd" d="M632.095 232C632.579 245.821 632.734 260.496 632.095 274C647.552 276.489 662.72 277.439 678.095 278C677.474 262.848 676.598 247.296 674.095 232C660.474 232.615 646.026 232.534 632.095 232Z" fill="#2B8B7C"/>
<path fill-rule="evenodd" clip-rule="evenodd" d="M669.095 206C666.345 193.971 662.932 182.029 659.095 170C648.653 171.846 637.756 172.769 627.095 174C628.657 184.481 630.154 195.519 631.095 206C643.884 206.453 656.625 206.534 669.095 206Z" fill="#2B8B7C"/>
<path fill-rule="evenodd" clip-rule="evenodd" d="M191.095 -296C204.423 -293.14 217.766 -290.037 231.095 -286C234.228 -299.45 237.938 -312.111 242.095 -325C227.743 -331.281 212.748 -337.511 198.095 -342C194.724 -327.238 192.657 -311.468 191.095 -296Z" fill="#2B8B7C"/>
<path fill-rule="evenodd" clip-rule="evenodd" d="M221.095 -228C222.355 -238.662 223.286 -249.6 225.095 -260C212.927 -263.738 201.345 -266.194 189.095 -269C188.629 -256.573 188.547 -244.662 189.095 -232C199.673 -231.149 210.434 -229.566 221.095 -228Z" fill="#2B8B7C"/>
<path fill-rule="evenodd" clip-rule="evenodd" d="M191.095 -205C191.963 -196.048 192.77 -187.015 194.095 -178C201.622 -178.534 209.485 -178.683 217.095 -179C217.396 -186.54 217.474 -194.533 218.095 -202C208.923 -203.331 200.184 -204.14 191.095 -205Z" fill="#2B8B7C"/>
<path fill-rule="evenodd" clip-rule="evenodd" d="M553.095 324C567.346 330.281 581.423 336.502 596.095 341C599.466 326.165 601.533 310.45 603.095 295C589.766 292.113 576.451 289.037 563.095 285C559.961 298.423 557.251 311.084 553.095 324Z" fill="#2B8B7C"/>
<path fill-rule="evenodd" clip-rule="evenodd" d="M573.095 227C571.852 237.563 570.894 248.673 569.095 259C581.236 262.738 592.872 265.294 605.095 268C605.579 255.573 605.579 243.59 605.095 231C594.516 230.068 583.774 228.466 573.095 227Z" fill="#2B8B7C"/>
<path fill-rule="evenodd" clip-rule="evenodd" d="M600.095 177C592.567 177.534 584.704 177.701 577.095 178C576.775 185.621 576.652 193.469 576.095 201C585.267 202.331 594.005 203.149 603.095 204C602.236 194.994 601.419 186.087 600.095 177Z" fill="#2B8B7C"/>
<path fill-rule="evenodd" clip-rule="evenodd" d="M332.095 -354C319.872 -363.802 307.039 -372.926 294.095 -381C286.969 -367.632 280.731 -353.464 275.095 -339C287.263 -332.791 299.255 -326.295 311.095 -319C317.599 -331.192 324.649 -342.659 332.095 -354Z" fill="#2B8B7C"/>
<path fill-rule="evenodd" clip-rule="evenodd" d="M299.095 -295C288.279 -301.843 277.148 -308.18 266.095 -314C262.404 -302.125 259.844 -289.346 257.095 -277C267.07 -273.416 276.219 -270.118 286.095 -266C290.087 -275.866 294.618 -285.505 299.095 -295Z" fill="#2B8B7C"/>
<path fill-rule="evenodd" clip-rule="evenodd" d="M277.095 -241C268.626 -244.575 259.627 -247.814 251.095 -251C249.587 -242.067 248.118 -233.087 247.095 -224C254.458 -222.588 262.649 -220.711 270.095 -219C272.36 -226.241 274.665 -233.94 277.095 -241Z" fill="#2B8B7C"/>
<path fill-rule="evenodd" clip-rule="evenodd" d="M262.095 -193C256.294 -194.331 250.823 -195.914 245.095 -197C244.629 -191.253 244.314 -185.829 244.095 -180C248.955 -179.919 254.153 -179.154 259.095 -179C260.255 -183.752 260.825 -188.348 262.095 -193Z" fill="#2B8B7C"/>
<path fill-rule="evenodd" clip-rule="evenodd" d="M251.095 -145C251.634 -147.489 252.556 -150.511 253.095 -153C249.961 -153.081 246.228 -153 243.095 -153C243.095 -149.977 243.013 -147.123 243.095 -144L251.095 -145Z" fill="#2B8B7C"/>
<path fill-rule="evenodd" clip-rule="evenodd" d="M462.095 353C474.263 362.866 487.168 371.827 500.095 380C507.239 366.559 513.54 352.464 519.095 338C506.954 331.791 494.934 325.295 483.095 318C476.59 330.192 469.485 341.659 462.095 353Z" fill="#2B8B7C"/>
<path fill-rule="evenodd" clip-rule="evenodd" d="M495.095 294C505.838 300.761 517.041 307.253 528.095 313C531.767 301.188 535.281 288.346 538.095 276C528.137 272.416 517.97 269.2 508.095 265C504.103 274.866 499.571 284.433 495.095 294Z" fill="#2B8B7C"/>
<path fill-rule="evenodd" clip-rule="evenodd" d="M517.095 240C525.627 243.657 534.544 246.814 543.095 250C544.584 241.067 546.072 232.114 547.095 223C539.649 221.606 532.54 219.629 525.095 218C522.902 225.223 519.607 232.94 517.095 240Z" fill="#2B8B7C"/>
<path fill-rule="evenodd" clip-rule="evenodd" d="M532.095 192C537.896 193.312 543.294 194.832 549.095 196C549.579 190.171 549.857 184.82 550.095 179C545.153 179 541.037 178.154 536.095 178C534.907 182.734 533.346 187.348 532.095 192Z" fill="#2B8B7C"/>
<path fill-rule="evenodd" clip-rule="evenodd" d="M543.095 144C542.611 146.489 542.643 149.511 542.095 152C545.228 152.081 547.961 152 551.095 152C551.095 148.977 551.095 146.023 551.095 143L543.095 144Z" fill="#2B8B7C"/>
<path fill-rule="evenodd" clip-rule="evenodd" d="M397.095 -330C406.586 -340.101 416.982 -349.913 427.095 -359C417.923 -371.59 407.527 -382.885 397.095 -394C386.754 -382.885 377.267 -371.59 368.095 -359C378.217 -349.913 387.704 -340.101 397.095 -330Z" fill="#2B8B7C"/>
<path fill-rule="evenodd" clip-rule="evenodd" d="M379.095 -310C370.462 -319.332 362.267 -327.601 353.095 -336C346.426 -325.573 340.06 -315.178 334.095 -304C342.81 -297.936 350.709 -291.598 359.095 -285C365.517 -293.535 372.271 -301.981 379.095 -310Z" fill="#2B8B7C"/>
<path fill-rule="evenodd" clip-rule="evenodd" d="M311.095 -255C317.901 -251.714 324.353 -247.557 331.095 -244C335.169 -250.444 339.856 -256.854 344.095 -263C336.887 -268.747 329.549 -274.805 322.095 -280C318.322 -271.845 314.52 -263.535 311.095 -255Z" fill="#2B8B7C"/>
<path fill-rule="evenodd" clip-rule="evenodd" d="M296.095 -213C300.809 -211.688 305.399 -210.312 310.095 -209C312.543 -213.272 314.583 -217.809 317.095 -222C311.751 -224.724 306.338 -226.429 301.095 -229C299.131 -223.47 297.821 -218.594 296.095 -213Z" fill="#2B8B7C"/>
<path fill-rule="evenodd" clip-rule="evenodd" d="M286.095 -178C288.689 -177.837 291.509 -178.163 294.095 -178C295.255 -180.326 295.989 -182.746 297.095 -185C294.181 -185.86 291.082 -186.222 288.095 -187C287.309 -184.04 286.798 -181.023 286.095 -178Z" fill="#2B8B7C"/>
<path fill-rule="evenodd" clip-rule="evenodd" d="M397.095 329C387.621 339.182 378.207 348.849 368.095 358C377.267 370.59 386.763 381.885 397.095 393C407.536 381.885 417.923 370.59 427.095 358C416.973 348.849 406.513 339.182 397.095 329Z" fill="#2B8B7C"/>
<path fill-rule="evenodd" clip-rule="evenodd" d="M415.095 309C423.728 318.232 432.923 327.546 442.095 336C448.763 325.519 455.212 314.178 461.095 303C452.48 297.017 443.481 290.517 435.095 284C428.59 292.454 421.919 300.908 415.095 309Z" fill="#2B8B7C"/>
<path fill-rule="evenodd" clip-rule="evenodd" d="M483.095 254C476.271 250.742 469.837 246.485 463.095 243C459.02 249.363 455.407 255.782 451.095 262C458.403 267.666 465.64 273.705 473.095 279C476.849 270.763 479.715 262.472 483.095 254Z" fill="#2B8B7C"/>
<path fill-rule="evenodd" clip-rule="evenodd" d="M498.095 212C493.399 210.751 488.872 209.394 484.095 208C481.747 212.254 479.607 216.809 477.095 221C482.357 223.724 487.833 225.43 493.095 228C495.059 222.47 496.286 217.594 498.095 212Z" fill="#2B8B7C"/>
<path fill-rule="evenodd" clip-rule="evenodd" d="M508.095 177C505.528 176.864 502.762 177.154 500.095 177C498.989 179.326 498.282 181.647 497.095 184C500.064 184.778 503.126 185.222 506.095 186C506.953 183.04 507.309 179.96 508.095 177Z" fill="#2B8B7C"/>
<path fill-rule="evenodd" clip-rule="evenodd" d="M211.095 98C210.236 100.942 209.944 104.113 209.095 107C212.064 107.851 215.098 109.222 218.095 110C218.259 107.439 217.857 104.561 218.095 102C215.665 100.851 213.443 99.1585 211.095 98Z" fill="#2B8B7C"/>
<path fill-rule="evenodd" clip-rule="evenodd" d="M585.095 -108C582.126 -108.778 580.064 -110.222 577.095 -111C576.93 -108.439 576.332 -105.561 576.095 -103C578.461 -101.823 580.747 -100.159 583.095 -99C583.953 -101.942 584.309 -105.058 585.095 -108Z" fill="#2B8B7C"/>
<path fill-rule="evenodd" clip-rule="evenodd" d="M519.095 -339C513.531 -353.464 507.239 -367.632 500.095 -381C487.168 -372.926 474.263 -363.802 462.095 -354C469.485 -342.659 476.59 -331.192 483.095 -319C494.943 -326.295 507.036 -332.791 519.095 -339Z" fill="#2B8B7C"/>
<path fill-rule="evenodd" clip-rule="evenodd" d="M435.095 -285C443.563 -291.607 452.48 -297.936 461.095 -304C455.212 -315.178 448.763 -325.573 442.095 -336C432.923 -327.61 423.728 -319.332 415.095 -310C421.919 -301.981 428.673 -293.535 435.095 -285Z" fill="#2B8B7C"/>
<path fill-rule="evenodd" clip-rule="evenodd" d="M397.095 -290C391.294 -283.022 385.567 -275.304 380.095 -268C385.813 -263.103 391.54 -258.132 397.095 -253C402.759 -258.132 408.367 -263.103 414.095 -268C408.614 -275.295 402.905 -283.013 397.095 -290Z" fill="#2B8B7C"/>
<path fill-rule="evenodd" clip-rule="evenodd" d="M365.095 -246C361.806 -241.167 358.31 -235.969 355.095 -231C359.333 -228.592 363.856 -226.561 368.095 -224C371.466 -227.584 374.66 -230.579 378.095 -234C373.719 -238.037 369.571 -242.189 365.095 -246Z" fill="#2B8B7C"/>
<path fill-rule="evenodd" clip-rule="evenodd" d="M344.095 -198C345.821 -199.928 347.368 -202.054 349.095 -204C346.427 -205.548 343.744 -207.452 341.095 -209C339.505 -206.357 337.584 -203.625 336.095 -201C338.607 -200.149 341.674 -198.778 344.095 -198Z" fill="#2B8B7C"/>
<path fill-rule="evenodd" clip-rule="evenodd" d="M275.095 338C280.731 352.464 286.969 366.55 294.095 380C307.039 371.827 319.954 362.866 332.095 353C324.732 341.659 317.599 330.192 311.095 318C299.246 325.295 287.263 331.791 275.095 338Z" fill="#2B8B7C"/>
<path fill-rule="evenodd" clip-rule="evenodd" d="M359.095 284C350.699 290.607 342.728 297.017 334.095 303C339.978 314.178 346.435 324.519 353.095 335C362.267 326.546 370.462 318.232 379.095 309C372.271 300.908 365.517 292.535 359.095 284Z" fill="#2B8B7C"/>
<path fill-rule="evenodd" clip-rule="evenodd" d="M397.095 289C402.896 282.094 408.614 274.304 414.095 267C408.376 262.103 402.759 257.132 397.095 252C391.531 257.132 385.813 262.103 380.095 267C385.576 274.295 391.212 282.094 397.095 289Z" fill="#2B8B7C"/>
<path fill-rule="evenodd" clip-rule="evenodd" d="M430.095 245C433.383 240.185 436.861 234.978 440.095 230C435.856 227.592 431.333 225.561 427.095 223C423.724 226.584 420.548 230.579 417.095 234C421.489 237.955 425.637 241.199 430.095 245Z" fill="#2B8B7C"/>
<path fill-rule="evenodd" clip-rule="evenodd" d="M458.095 200C455.583 199.149 453.598 197.86 451.095 197C449.45 198.946 446.885 201.072 445.095 203C447.744 204.575 450.418 206.452 453.095 208C454.657 205.357 456.533 202.652 458.095 200Z" fill="#2B8B7C"/>
<path fill-rule="evenodd" clip-rule="evenodd" d="M166.095 94C171.658 95.9279 177.367 98.2079 183.095 100C184.355 95.3477 185.743 90.6523 187.095 86C182.783 83.6739 178.334 81.4076 174.095 79C171.345 84.2134 168.671 88.7866 166.095 94Z" fill="#2B8B7C"/>
<path fill-rule="evenodd" clip-rule="evenodd" d="M198.095 52C196.048 50.2893 194.068 48.7107 192.095 47C190.533 49.6429 188.602 52.3571 187.095 55C189.762 56.5477 192.427 58.5247 195.095 60C195.963 57.5924 197.227 54.3985 198.095 52Z" fill="#2B8B7C"/>
<path fill-rule="evenodd" clip-rule="evenodd" d="M628.095 -95C622.531 -96.9279 616.813 -99.2079 611.095 -101C609.852 -96.3477 608.502 -91.6523 607.095 -87C611.489 -84.5924 615.856 -82.4076 620.095 -80C622.826 -85.1953 625.5 -89.7866 628.095 -95Z" fill="#2B8B7C"/>
<path fill-rule="evenodd" clip-rule="evenodd" d="M597.095 -53C599.041 -51.2893 601.204 -49.7107 603.095 -48C604.739 -50.6429 605.615 -53.3571 607.095 -56C604.427 -57.4753 601.844 -59.5247 599.095 -61C598.309 -58.5924 597.963 -55.3985 597.095 -53Z" fill="#2B8B7C"/>
<path fill-rule="evenodd" clip-rule="evenodd" d="M603.095 -296C601.533 -311.477 599.466 -327.247 596.095 -342C581.423 -337.502 567.346 -331.363 553.095 -325C557.251 -312.193 559.961 -299.45 563.095 -286C576.441 -290.037 589.757 -293.14 603.095 -296Z" fill="#2B8B7C"/>
<path fill-rule="evenodd" clip-rule="evenodd" d="M508.095 -266C517.97 -270.2 528.137 -273.416 538.095 -277C535.281 -289.355 531.776 -302.206 528.095 -314C517.032 -308.253 505.829 -301.77 495.095 -295C499.571 -285.433 504.103 -275.866 508.095 -266Z" fill="#2B8B7C"/>
<path fill-rule="evenodd" clip-rule="evenodd" d="M451.095 -263C455.407 -256.854 459.02 -250.444 463.095 -244C469.837 -247.557 476.271 -251.714 483.095 -255C479.724 -263.535 476.922 -271.845 473.095 -280C465.649 -274.805 458.403 -268.747 451.095 -263Z" fill="#2B8B7C"/>
<path fill-rule="evenodd" clip-rule="evenodd" d="M430.095 -246C425.637 -242.18 421.489 -238.037 417.095 -234C420.548 -230.579 423.724 -227.584 427.095 -224C431.333 -226.571 434.865 -228.592 439.095 -231C435.943 -235.969 433.383 -241.167 430.095 -246Z" fill="#2B8B7C"/>
<path fill-rule="evenodd" clip-rule="evenodd" d="M391.095 -209C393.205 -207.606 394.984 -206.466 397.095 -205C399.305 -206.475 401.884 -207.615 404.095 -209C401.966 -211.245 399.305 -213.909 397.095 -216C394.984 -213.909 393.205 -211.254 391.095 -209Z" fill="#2B8B7C"/>
<path fill-rule="evenodd" clip-rule="evenodd" d="M191.095 295C192.657 310.45 194.724 326.165 198.095 341C212.748 336.502 227.743 330.281 242.095 324C237.938 311.093 234.146 298.432 231.095 285C217.766 289.037 204.423 292.122 191.095 295Z" fill="#2B8B7C"/>
<path fill-rule="evenodd" clip-rule="evenodd" d="M286.095 265C276.219 269.2 267.07 272.416 257.095 276C259.844 288.355 262.395 301.188 266.095 313C277.158 307.253 288.279 300.77 299.095 294C294.618 284.433 290.087 274.866 286.095 265Z" fill="#2B8B7C"/>
<path fill-rule="evenodd" clip-rule="evenodd" d="M344.095 262C339.856 255.773 335.169 249.363 331.095 243C324.353 246.485 317.919 250.814 311.095 254C314.466 262.553 318.24 270.763 322.095 279C329.458 273.705 336.887 267.675 344.095 262Z" fill="#2B8B7C"/>
<path fill-rule="evenodd" clip-rule="evenodd" d="M365.095 245C369.571 241.199 373.719 237.964 378.095 234C374.66 230.497 371.466 226.575 368.095 223C363.856 225.57 359.333 227.592 355.095 230C358.31 234.969 361.797 240.185 365.095 245Z" fill="#2B8B7C"/>
<path fill-rule="evenodd" clip-rule="evenodd" d="M404.095 208C401.966 206.606 399.223 205.466 397.095 204C394.902 205.475 393.205 206.615 391.095 208C393.205 210.245 394.984 212.81 397.095 215C399.305 212.81 401.966 210.254 404.095 208Z" fill="#2B8B7C"/>
<path fill-rule="evenodd" clip-rule="evenodd" d="M151.095 65C144.654 60.9632 138.38 56.1997 132.095 52C126.376 59.1413 120.357 66.6234 115.095 74C123.408 77.72 132.544 81.5787 141.095 85C144.383 78.2388 147.559 71.6888 151.095 65Z" fill="#2B8B7C"/>
<path fill-rule="evenodd" clip-rule="evenodd" d="M172.095 29C168.559 25.6602 164.53 22.4213 161.095 19C157.075 23.3355 152.932 27.6374 149.095 32C153.955 35.2584 159.07 37.8955 164.095 41C166.525 36.8003 169.509 33.1183 172.095 29Z" fill="#2B8B7C"/>
<path fill-rule="evenodd" clip-rule="evenodd" d="M180.095 -1C182.305 1.16321 183.902 3.82773 186.095 6C187.52 3.82773 189.697 1.16321 191.095 -1C189.688 -3.10892 187.52 -4.83679 186.095 -7C183.902 -4.83679 182.305 -3.17227 180.095 -1Z" fill="#2B8B7C"/>
<path fill-rule="evenodd" clip-rule="evenodd" d="M643.095 -66C649.517 -61.9632 655.837 -57.1997 662.095 -53C667.813 -60.1594 673.769 -67.6234 679.095 -75C670.782 -78.72 662.627 -82.6511 654.095 -86C650.806 -79.3203 646.63 -72.6888 643.095 -66Z" fill="#2B8B7C"/>
<path fill-rule="evenodd" clip-rule="evenodd" d="M623.095 -30C626.612 -26.5787 629.642 -23.4213 633.095 -20C637.087 -24.2812 641.24 -28.6374 645.095 -33C640.235 -36.2584 635.119 -38.814 630.095 -42C627.583 -37.8184 625.607 -34.1183 623.095 -30Z" fill="#2B8B7C"/>
<path fill-rule="evenodd" clip-rule="evenodd" d="M608.095 6C610.305 3.82773 612.902 1.16321 615.095 -1C612.902 -3.17227 610.305 -4.83679 608.095 -7C606.688 -4.83679 605.602 -3.10892 604.095 -1C605.602 1.16321 606.688 3.82773 608.095 6Z" fill="#2B8B7C"/>
<path fill-rule="evenodd" clip-rule="evenodd" d="M632.095 -234C645.962 -234.534 660.437 -233.625 674.095 -233C676.607 -248.314 677.474 -263.848 678.095 -279C662.72 -278.385 647.552 -277.435 632.095 -275C632.734 -261.496 632.579 -247.821 632.095 -234Z" fill="#2B8B7C"/>
<path fill-rule="evenodd" clip-rule="evenodd" d="M573.095 -228C583.774 -229.575 594.516 -231.068 605.095 -232C605.652 -244.59 605.57 -256.564 605.095 -269C592.872 -266.194 581.318 -263.738 569.095 -260C570.986 -249.673 571.852 -238.653 573.095 -228Z" fill="#2B8B7C"/>
<path fill-rule="evenodd" clip-rule="evenodd" d="M525.095 -219C532.54 -220.629 539.649 -222.588 547.095 -224C546.008 -233.087 544.584 -242.076 543.095 -251C534.544 -247.814 525.572 -244.657 517.095 -241C519.607 -233.94 522.829 -226.223 525.095 -219Z" fill="#2B8B7C"/>
<path fill-rule="evenodd" clip-rule="evenodd" d="M498.095 -213C496.368 -218.585 494.986 -223.47 493.095 -229C487.751 -226.429 482.357 -224.724 477.095 -222C479.525 -217.8 481.747 -213.272 484.095 -209C488.809 -210.394 493.399 -211.751 498.095 -213Z" fill="#2B8B7C"/>
<path fill-rule="evenodd" clip-rule="evenodd" d="M451.095 -198C453.525 -198.86 455.646 -200.14 458.095 -201C456.587 -203.706 454.666 -206.357 453.095 -209C450.427 -207.452 447.744 -205.548 445.095 -204C446.821 -202.054 449.368 -199.928 451.095 -198Z" fill="#2B8B7C"/>
<path fill-rule="evenodd" clip-rule="evenodd" d="M162.095 232C148.227 232.534 134.743 232.615 121.095 232C118.583 247.296 116.716 262.848 116.095 278C131.451 277.448 146.574 275.489 162.095 273C161.474 259.496 161.629 245.821 162.095 232Z" fill="#2B8B7C"/>
<path fill-rule="evenodd" clip-rule="evenodd" d="M221.095 227C210.434 228.475 199.673 230.068 189.095 231C188.556 243.59 188.638 255.654 189.095 268C201.336 265.294 212.927 262.82 225.095 259C223.286 248.673 222.365 237.563 221.095 227Z" fill="#2B8B7C"/>
<path fill-rule="evenodd" clip-rule="evenodd" d="M270.095 218C262.649 219.629 254.458 221.615 247.095 223C248.118 232.105 249.587 241.067 251.095 250C259.627 246.895 268.626 243.657 277.095 240C274.583 232.94 272.36 225.223 270.095 218Z" fill="#2B8B7C"/>
<path fill-rule="evenodd" clip-rule="evenodd" d="M317.095 221C314.665 216.8 312.461 212.254 310.095 208C305.399 209.394 300.818 210.751 296.095 212C297.821 217.594 299.213 222.47 301.095 228C306.411 225.439 311.833 223.724 317.095 221Z" fill="#2B8B7C"/>
<path fill-rule="evenodd" clip-rule="evenodd" d="M344.095 197C341.583 197.86 338.598 199.222 336.095 200C337.657 202.724 339.505 205.348 341.095 208C343.744 206.452 346.5 204.566 349.095 203C347.368 201.072 345.821 198.946 344.095 197Z" fill="#2B8B7C"/>
<path fill-rule="evenodd" clip-rule="evenodd" d="M251.095 144C248.509 143.538 245.689 143.543 243.095 143C243.095 146.105 243.095 148.977 243.095 152C246.164 152 250.044 152.081 253.095 152C252.556 149.511 251.561 146.57 251.095 144Z" fill="#2B8B7C"/>
<path fill-rule="evenodd" clip-rule="evenodd" d="M217.095 137L202.095 133C200.852 138.747 200.173 144.253 199.095 150C204.96 150.38 210.139 150.683 216.095 151C216.095 146.103 217.013 141.815 217.095 137Z" fill="#2B8B7C"/>
<path fill-rule="evenodd" clip-rule="evenodd" d="M144.095 144C153.13 145.548 162.914 146.905 172.095 148C173.502 140.623 174.368 133.377 176.095 126L155.095 119C151.404 127.472 147.329 135.519 144.095 144Z" fill="#2B8B7C"/>
<path fill-rule="evenodd" clip-rule="evenodd" d="M130.095 109L100.095 97L81.0947 129C93.0163 132.657 105.716 136.194 118.095 139C121.712 129.134 125.865 118.802 130.095 109Z" fill="#2B8B7C"/>
<path fill-rule="evenodd" clip-rule="evenodd" d="M91.0947 62C97.1971 53.3652 103.435 45.3904 110.095 37C101.462 30.619 93.1703 23.6797 85.0947 17C75.6762 25.5533 66.5723 34.9127 58.0947 44L91.0947 62Z" fill="#2B8B7C"/>
<path fill-rule="evenodd" clip-rule="evenodd" d="M105.095 -1C112.165 4.74744 119.64 10.4788 127.095 16C131.955 10.3159 136.915 4.58453 142.095 -1C136.915 -6.51212 132.037 -11.334 127.095 -17C119.732 -11.4698 112.165 -6.74744 105.095 -1Z" fill="#2B8B7C"/>
<path fill-rule="evenodd" clip-rule="evenodd" d="M164.095 -42C159.079 -38.814 153.955 -36.2675 149.095 -33C152.932 -28.6464 156.993 -24.2812 161.095 -20C164.53 -23.4213 168.568 -26.5787 172.095 -30C169.509 -34.1183 166.607 -37.8184 164.095 -42Z" fill="#2B8B7C"/>
<path fill-rule="evenodd" clip-rule="evenodd" d="M198.095 -53C197.309 -55.4076 195.963 -58.52 195.095 -61C192.427 -59.5247 189.854 -57.4753 187.095 -56C188.684 -53.3571 190.533 -50.6429 192.095 -48C194.059 -49.7107 196.122 -51.2893 198.095 -53Z" fill="#2B8B7C"/>
<path fill-rule="evenodd" clip-rule="evenodd" d="M543.095 -145C545.68 -144.52 548.528 -144.48 551.095 -144C551.095 -147.041 551.095 -149.977 551.095 -153C547.961 -153 545.164 -153.081 542.095 -153C542.579 -150.511 542.611 -147.543 543.095 -145Z" fill="#2B8B7C"/>
<path fill-rule="evenodd" clip-rule="evenodd" d="M578.095 -138C582.891 -136.851 587.317 -135.231 592.095 -134C593.355 -139.747 594.989 -145.253 596.095 -151C590.212 -151.398 584.051 -151.765 578.095 -152C578.095 -147.185 578.177 -142.833 578.095 -138Z" fill="#2B8B7C"/>
<path fill-rule="evenodd" clip-rule="evenodd" d="M650.095 -145C641.16 -146.548 632.349 -147.914 623.095 -149C621.688 -141.623 619.821 -134.377 618.095 -127C625.403 -124.737 632.951 -122.48 640.095 -120C643.767 -128.39 646.961 -136.528 650.095 -145Z" fill="#2B8B7C"/>
<path fill-rule="evenodd" clip-rule="evenodd" d="M713.095 -130C701.173 -133.72 689.482 -137.276 677.095 -140C673.422 -130.134 669.333 -119.784 665.095 -110L694.095 -98L713.095 -130Z" fill="#2B8B7C"/>
<path fill-rule="evenodd" clip-rule="evenodd" d="M703.095 -63C697.056 -54.3924 690.754 -46.3904 684.095 -38C692.728 -31.6371 700.946 -24.7612 709.095 -18C718.513 -26.6076 727.617 -35.9127 736.095 -45C725.516 -51.6073 714.477 -57.0896 703.095 -63Z" fill="#2B8B7C"/>
<path fill-rule="evenodd" clip-rule="evenodd" d="M667.095 16C674.558 10.4698 682.042 4.74744 689.095 -1C682.051 -6.74744 674.567 -11.4788 667.095 -17C662.153 -11.334 657.256 -6.50308 652.095 -1C657.256 4.51212 662.153 10.3159 667.095 16Z" fill="#2B8B7C"/>
<path fill-rule="evenodd" clip-rule="evenodd" d="M630.095 41C635.11 37.8955 640.235 35.2675 645.095 32C641.24 27.6464 637.096 23.3355 633.095 19C629.642 22.4213 626.603 25.6602 623.095 29C625.607 33.1183 627.583 36.8093 630.095 41Z" fill="#2B8B7C"/>
<path fill-rule="evenodd" clip-rule="evenodd" d="M597.095 52C597.963 54.4076 598.227 57.6015 599.095 60C601.762 58.5247 604.418 56.5568 607.095 55C605.606 52.3571 604.739 49.6429 603.095 47C601.204 48.7107 599.123 50.2893 597.095 52Z" fill="#2B8B7C"/>
<path fill-rule="evenodd" clip-rule="evenodd" d="M742.095 -197C727.095 -200.421 711.707 -203.434 696.095 -205C693.208 -191.776 689.251 -178.215 685.095 -165C698.661 -161.977 712.086 -158.118 725.095 -154C731.535 -168.219 737.536 -182.563 742.095 -197Z" fill="#2B8B7C"/>
<path fill-rule="evenodd" clip-rule="evenodd" d="M669.095 -207C656.625 -207.48 643.884 -207.561 631.095 -207C630.154 -196.6 628.575 -185.499 627.095 -175C637.756 -173.688 648.653 -172.792 659.095 -171C662.932 -183.029 666.345 -194.971 669.095 -207Z" fill="#2B8B7C"/>
<path fill-rule="evenodd" clip-rule="evenodd" d="M603.095 -205C594.005 -204.14 585.267 -203.331 576.095 -202C576.661 -194.542 576.775 -186.54 577.095 -179C584.704 -178.683 592.567 -178.534 600.095 -178C601.419 -187.006 602.236 -195.994 603.095 -205Z" fill="#2B8B7C"/>
<path fill-rule="evenodd" clip-rule="evenodd" d="M536.095 -179C541.037 -179.163 545.153 -180 550.095 -180C549.857 -185.829 549.579 -191.171 549.095 -197C543.376 -195.823 537.896 -194.331 532.095 -193C533.337 -188.348 534.907 -183.752 536.095 -179Z" fill="#2B8B7C"/>
<path fill-rule="evenodd" clip-rule="evenodd" d="M506.095 -187C503.126 -186.222 500.064 -185.86 497.095 -185C498.282 -182.755 498.989 -180.326 500.095 -178C502.68 -178.163 505.528 -177.837 508.095 -178C507.309 -181.023 506.88 -184.031 506.095 -187Z" fill="#2B8B7C"/>
<path fill-rule="evenodd" clip-rule="evenodd" d="M218.095 -103C217.93 -105.561 218.259 -108.439 218.095 -111L209.095 -108C209.88 -105.14 210.236 -101.942 211.095 -99C213.443 -100.149 215.738 -101.823 218.095 -103Z" fill="#2B8B7C"/>
<path fill-rule="evenodd" clip-rule="evenodd" d="M174.095 -80C178.407 -82.4076 182.774 -84.5924 187.095 -87C185.752 -91.6523 184.365 -96.3477 183.095 -101L166.095 -95C168.607 -89.7866 171.345 -85.1863 174.095 -80Z" fill="#2B8B7C"/>
<path fill-rule="evenodd" clip-rule="evenodd" d="M141.095 -86C132.544 -82.6602 123.481 -78.72 115.095 -75C120.357 -67.6234 126.367 -60.1594 132.095 -53C138.298 -57.1997 144.563 -61.9632 151.095 -66C147.559 -72.6797 144.383 -79.3112 141.095 -86Z" fill="#2B8B7C"/>
<path fill-rule="evenodd" clip-rule="evenodd" d="M53.0947 197C68.0675 200.34 83.583 202.371 99.0947 204C102.082 190.713 104.938 177.124 109.095 164C95.4466 160.895 82.1217 157.118 69.0947 153C62.6726 167.138 57.6532 182.482 53.0947 197Z" fill="#2B8B7C"/>
<path fill-rule="evenodd" clip-rule="evenodd" d="M126.095 206C138.564 206.534 151.333 206.453 164.095 206C165.036 195.519 165.533 184.563 167.095 174C156.434 172.688 146.518 171.846 136.095 170C132.24 182.029 128.826 193.971 126.095 206Z" fill="#2B8B7C"/>
<path fill-rule="evenodd" clip-rule="evenodd" d="M191.095 204C200.184 203.14 208.923 202.331 218.095 201C217.474 193.46 217.396 185.612 217.095 178C209.485 177.701 201.622 177.534 194.095 177C192.77 186.087 191.953 194.994 191.095 204Z" fill="#2B8B7C"/>
<path fill-rule="evenodd" clip-rule="evenodd" d="M259.095 178C254.235 178.081 248.955 179 244.095 179C244.314 184.829 244.629 190.171 245.095 196C250.813 194.823 256.294 193.312 262.095 192C260.834 187.348 260.273 182.734 259.095 178Z" fill="#2B8B7C"/>
<path fill-rule="evenodd" clip-rule="evenodd" d="M288.095 186C291.082 185.222 294.19 184.778 297.095 184C295.989 181.656 295.173 179.335 294.095 177C291.427 177.163 288.68 176.864 286.095 177C286.88 179.96 287.309 183.04 288.095 186Z" fill="#2B8B7C"/>
<path fill-rule="evenodd" clip-rule="evenodd" d="M577.095 110L585.095 107C584.309 104.04 583.963 100.942 583.095 98C580.747 99.1495 578.461 100.923 576.095 102C576.332 104.571 576.939 107.439 577.095 110Z" fill="#2B8B7C"/>
<path fill-rule="evenodd" clip-rule="evenodd" d="M620.095 79C615.856 81.4076 611.416 83.6739 607.095 86C608.419 90.6523 609.843 95.3477 611.095 100L628.095 94C625.509 88.7323 622.826 84.2134 620.095 79Z" fill="#2B8B7C"/>
<path fill-rule="evenodd" clip-rule="evenodd" d="M679.095 74C673.778 66.6234 667.823 59.2228 662.095 52C655.828 56.1997 649.517 60.9632 643.095 65C646.63 71.6797 650.806 78.2388 654.095 85L679.095 74Z" fill="#2B8B7C"/>
<path fill-rule="evenodd" clip-rule="evenodd" d="M76.0947 85L40.0947 64C30.2195 76.0289 21.2434 89.0931 13.0947 102C26.6424 109.06 40.4234 114.497 55.0947 120C61.3615 107.971 68.6495 96.6488 76.0947 85Z" fill="#2B8B7C"/>
<path fill-rule="evenodd" clip-rule="evenodd" d="M781.095 -103C767.529 -110.06 753.748 -115.497 739.095 -121C732.81 -108.971 725.54 -97.6488 718.095 -86L754.095 -65C763.988 -77.0561 772.946 -90.1112 781.095 -103Z" fill="#2B8B7C"/>
<path fill-rule="evenodd" clip-rule="evenodd" d="M65.0947 -1C54.8997 -10.4041 44.2666 -19.9804 35.0947 -30C22.552 -20.9941 11.3768 -11.3364 0.0947266 -1L35.0947 29C44.2666 18.9714 54.8997 8.40408 65.0947 -1Z" fill="#2B8B7C"/>
<path fill-rule="evenodd" clip-rule="evenodd" d="M58.0947 -45C66.5631 -35.9127 75.6762 -26.5262 85.0947 -18C93.1612 -24.6797 101.462 -31.6371 110.095 -38C103.426 -46.3904 97.1971 -54.3924 91.0947 -63L59.0947 -45H58.0947Z" fill="#2B8B7C"/>
<path fill-rule="evenodd" clip-rule="evenodd" d="M730.095 -1C740.271 8.40408 749.923 18.9804 759.095 29L781.095 11L795.095 -1L759.095 -30C749.923 -19.9714 740.271 -10.4041 730.095 -1Z" fill="#2B8B7C"/>
<path fill-rule="evenodd" clip-rule="evenodd" d="M736.095 44C727.626 34.9127 718.513 25.5533 709.095 17C700.946 23.7612 692.728 30.619 684.095 37C690.763 45.3904 697.056 53.3652 703.095 62L736.095 44Z" fill="#2B8B7C"/>
<path fill-rule="evenodd" clip-rule="evenodd" d="M199.095 -151C200.182 -145.253 200.77 -139.666 202.095 -134L217.095 -138C217.013 -142.833 216.095 -147.194 216.095 -152C210.129 -151.765 204.96 -151.398 199.095 -151Z" fill="#2B8B7C"/>
<path fill-rule="evenodd" clip-rule="evenodd" d="M81.0947 -130C86.8956 -119.039 93.2889 -108.644 100.095 -98L130.095 -110C125.856 -119.784 121.703 -130.134 118.095 -140C105.625 -137.276 93.0163 -133.72 81.0947 -130Z" fill="#2B8B7C"/>
<path fill-rule="evenodd" clip-rule="evenodd" d="M578.095 151C584.06 150.765 590.212 150.38 596.095 150C594.989 144.253 593.365 138.666 592.095 133L578.095 137C578.177 141.897 578.095 146.194 578.095 151Z" fill="#2B8B7C"/>
<path fill-rule="evenodd" clip-rule="evenodd" d="M713.095 129C707.276 118.057 700.919 107.635 694.095 97L665.095 109C669.333 118.802 673.413 129.053 677.095 139C689.482 136.194 701.164 132.666 713.095 129Z" fill="#2B8B7C"/>
<path d="M455.095 57C487.128 25.2621 487.128 -26.2621 455.095 -58C423.062 -89.7379 371.128 -89.7379 339.095 -58C307.062 -26.2621 307.062 25.2621 339.095 57C371.128 88.7379 423.062 88.7379 455.095 57Z" fill="#2B8B7C"/>
<path fill-rule="evenodd" clip-rule="evenodd" d="M721.095 83L718.095 85C725.54 96.6578 732.81 107.971 739.095 120C753.748 114.488 767.529 109.06 781.095 102C772.946 89.0931 763.988 76.0289 754.095 64L721.095 83Z" fill="#2B8B7C"/>
<path fill-rule="evenodd" clip-rule="evenodd" d="M640.095 119C632.951 121.489 625.403 123.737 618.095 126C619.821 133.377 621.688 140.623 623.095 148C632.349 146.905 641.16 145.557 650.095 144C646.961 135.528 643.767 127.399 640.095 119Z" fill="#2B8B7C"/>
</g>
</svg>
