<svg width="222" height="167" viewBox="0 0 222 167" fill="none" xmlns="http://www.w3.org/2000/svg">
<path d="M157.702 63.9866C157.702 92.5541 134.342 115.976 105.894 115.976C77.4454 115.976 55.0817 92.5541 55.0817 63.9866C55.0817 35.4191 77.4454 12.9973 105.894 12.9973C134.342 12.9973 157.702 35.4191 157.702 63.9866Z" fill="url(#paint0_linear_41_30074)"/>
<path d="M137.776 64.9864C137.776 82.1427 123.299 95.9799 105.894 95.9799C88.4885 95.9799 75.008 82.1427 75.008 64.9864C75.008 47.8301 88.4885 33.9929 105.894 33.9929C123.299 33.9929 137.776 47.8301 137.776 64.9864Z" fill="url(#paint1_radial_41_30074)"/>
<path fill-rule="evenodd" clip-rule="evenodd" d="M105.894 129.973C141.756 129.973 194.599 104.246 210.507 67.9857C211.476 65.78 211.476 63.193 210.507 60.9872C194.599 24.7274 141.756 0 105.894 0C70.0745 0 17.2574 24.7966 1.28061 60.9872C0.272398 63.27 0.207699 65.7318 1.28061 67.9857C17.3724 101.778 70.1464 129.973 105.894 129.973ZM105.894 110.977C132.192 110.977 153.717 90.5965 153.717 64.9864C153.717 39.3763 132.192 17.9962 105.894 17.9962C79.5959 17.9962 58.0706 39.3763 58.0706 64.9864C58.0706 90.5965 79.5959 110.977 105.894 110.977Z" fill="url(#paint2_radial_41_30074)"/>
<path d="M189.584 101.979C189.584 120.155 174.806 134.972 156.706 134.972C138.606 134.972 123.828 120.155 123.828 101.979C123.828 83.8027 138.606 68.9855 156.706 68.9855C174.806 68.9855 189.584 83.8027 189.584 101.979Z" fill="url(#paint3_radial_41_30074)"/>
<path d="M219.474 164.965C216.772 167.678 212.212 167.678 209.511 164.965L182.61 137.971C179.116 140.778 175.196 143.332 170.654 144.97C166.112 146.607 161.83 146.969 156.706 146.969C144.012 146.969 132.618 142.804 123.828 133.972C115.037 125.14 110.88 114.721 110.875 101.979C110.875 89.2311 115.032 77.8129 123.828 68.9855C132.623 60.1582 144.016 55.9929 156.706 55.9883C169.4 55.9883 179.798 60.1535 188.588 68.9855C197.379 77.8176 201.536 89.2358 201.54 101.979C201.54 107.124 201.178 111.415 199.548 115.976C197.917 120.537 195.368 124.465 192.573 127.973L219.474 154.968C222.175 157.68 222.175 162.253 219.474 164.965ZM156.706 132.972C165.441 132.972 172.508 130.116 178.625 123.974C184.742 117.832 187.596 110.745 187.592 101.979C187.592 93.2074 184.742 85.1256 178.625 78.9834C172.508 72.8412 165.436 69.9807 156.706 69.9853C147.971 69.9853 139.907 72.8412 133.791 78.9834C127.674 85.1256 124.819 93.2121 124.824 101.979C124.824 110.75 127.674 117.832 133.791 123.974C139.907 130.116 147.976 132.977 156.706 132.972Z" fill="url(#paint4_linear_41_30074)"/>
<defs>
<linearGradient id="paint0_linear_41_30074" x1="134.842" y1="0.84792" x2="70.0846" y2="163.766" gradientUnits="userSpaceOnUse">
<stop stop-color="#8CEBDD"/>
<stop offset="0.0001" stop-color="#8CEBDD"/>
<stop offset="1" stop-color="#53C0B0"/>
</linearGradient>
<radialGradient id="paint1_radial_41_30074" cx="0" cy="0" r="1" gradientUnits="userSpaceOnUse" gradientTransform="translate(23.8416 182.182) rotate(-63.3286) scale(534.11 403.427)">
<stop stop-color="#2B8B7C"/>
<stop offset="1" stop-color="#9DE1D7"/>
</radialGradient>
<radialGradient id="paint2_radial_41_30074" cx="0" cy="0" r="1" gradientUnits="userSpaceOnUse" gradientTransform="translate(23.8416 182.182) rotate(-63.3286) scale(534.11 403.427)">
<stop stop-color="#2B8B7C"/>
<stop offset="1" stop-color="#9DE1D7"/>
</radialGradient>
<radialGradient id="paint3_radial_41_30074" cx="0" cy="0" r="1" gradientUnits="userSpaceOnUse" gradientTransform="translate(63.9799 120.67) rotate(-64.3544) scale(461.201 546.011)">
<stop stop-color="#2B8B7C"/>
<stop offset="1" stop-color="#BEFFF5"/>
</radialGradient>
<linearGradient id="paint4_linear_41_30074" x1="221.946" y1="106.226" x2="105.182" y2="142.143" gradientUnits="userSpaceOnUse">
<stop stop-color="#70E4D3"/>
<stop offset="0.0001" stop-color="#8CEBDD"/>
<stop offset="1" stop-color="#53C0B0"/>
</linearGradient>
</defs>
</svg>
