<svg width="303" height="88" viewBox="0 0 303 88" fill="none" xmlns="http://www.w3.org/2000/svg">
<path fill-rule="evenodd" clip-rule="evenodd" d="M291.124 87.4088L291.14 87.4522H302.5L287.221 47.2386L287.205 47.1965H275.625L260.041 87.3628L260.006 87.4522H271.314L274.106 80.4816H288.509L291.124 87.4088ZM277.052 72.3666L281.355 59.7264H281.367L285.618 72.3666H277.052Z" fill="#282828"/>
<path fill-rule="evenodd" clip-rule="evenodd" d="M255.282 47.1965H242.063L229.332 63.6709V47.1965H218.678V87.4522H229.332V70.1079L242.902 87.4272L242.922 87.4522H256.73L239.123 66.2607L255.282 47.1965Z" fill="#282828"/>
<path fill-rule="evenodd" clip-rule="evenodd" d="M202.209 62.8667L202.215 87.4522H212.87V47.1965H202.245L186.141 71.7281L186.136 47.1965H175.482V87.4522H186.105L202.209 62.8667Z" fill="#282828"/>
<path fill-rule="evenodd" clip-rule="evenodd" d="M142.153 56.1616H150.849V87.4522H161.504V56.1616H170.2V47.1965H142.153V56.1616Z" fill="#282828"/>
<path fill-rule="evenodd" clip-rule="evenodd" d="M112.013 56.1616H126.266V87.4522H136.921V47.1965H101.358V87.4522H112.013V56.1616Z" fill="#282828"/>
<path fill-rule="evenodd" clip-rule="evenodd" d="M91.0545 53.3253C89.16 51.5003 86.7947 50.0142 84.0265 48.9091C81.2583 47.8041 78.062 47.2444 74.5261 47.2444C71.4185 47.2444 68.5469 47.8133 65.9895 48.9341C63.4334 50.0562 61.2142 51.566 59.3926 53.4226C57.571 55.2792 56.139 57.4472 55.1381 59.8662C54.1371 62.2865 53.6294 64.8119 53.6294 67.3715C53.6294 70.0927 54.1637 72.7075 55.219 75.1436C56.273 77.5783 57.7685 79.7372 59.663 81.5636C61.5575 83.39 63.8326 84.8511 66.4218 85.9075C69.0123 86.9639 71.9025 87.5 75.0101 87.5C77.7624 87.5 80.4881 87.0533 83.1105 86.1729C85.7369 85.2926 88.1007 83.9694 90.1384 82.2402C92.1761 80.5098 93.8346 78.3496 95.0676 75.8203C96.3006 73.2896 96.9263 70.3503 96.9263 67.0838C96.9263 64.5229 96.4186 62.0211 95.4176 59.6494C94.4167 57.279 92.949 55.1504 91.0545 53.3253ZM75.2778 78.6032C69.0295 78.6032 63.9465 73.5655 63.9465 67.3715C63.9465 61.1775 69.0295 56.1398 75.2778 56.1398C81.5262 56.1398 86.6092 61.1775 86.6092 67.3715C86.6092 73.5655 81.5262 78.6032 75.2778 78.6032Z" fill="#282828"/>
<path fill-rule="evenodd" clip-rule="evenodd" d="M0.5 9.52459H9.19023V41.0227H19.8357V9.52459H28.5247V0.5H0.5V9.52459Z" fill="#282828"/>
<path fill-rule="evenodd" clip-rule="evenodd" d="M69.9201 6.62794C68.0271 4.7881 65.6651 3.29084 62.8977 2.17715C60.1317 1.06346 56.9378 0.5 53.4047 0.5C50.2995 0.5 47.4302 1.07272 44.8748 2.20228C42.3207 3.33316 40.1031 4.85556 38.2829 6.72581C36.4614 8.59739 35.0321 10.7824 34.0319 13.2201C33.0317 15.6591 32.5243 18.204 32.5243 20.7858C32.5243 23.529 33.0582 26.1638 34.1127 28.6187C35.1658 31.0722 36.6601 33.2494 38.5532 35.0892C40.4462 36.929 42.7194 38.4025 45.3066 39.4672C47.8965 40.532 50.7831 41.073 53.8883 41.073C56.6384 41.073 59.362 40.6232 61.9837 39.7357C64.608 38.8482 66.9699 37.515 69.006 35.7717C71.0422 34.0284 72.6994 31.8513 73.9314 29.3012C75.1634 26.7511 75.7887 23.7883 75.7887 20.4961C75.7887 17.9156 75.2813 15.3946 74.2811 13.0032C73.281 10.6131 71.8145 8.4691 69.9214 6.62926L69.9201 6.62794ZM54.1558 32.1158C47.9124 32.1158 42.8334 27.0447 42.8334 20.8096C42.8334 14.5745 47.9124 9.50343 54.1558 9.50343C60.3993 9.50343 65.4783 14.5745 65.4783 20.8096C65.4783 27.0447 60.3993 32.1158 54.1558 32.1158Z" fill="#282828"/>
<path fill-rule="evenodd" clip-rule="evenodd" d="M101.415 17.0612C100.92 17.1313 100.227 17.2093 99.3564 17.294C98.4543 17.3826 97.4912 17.4276 96.4937 17.4276C94.4801 17.4276 92.9328 17.0003 91.8956 16.1565C90.8623 15.3166 90.3377 13.7664 90.3377 11.547V0.5H79.6922V13.7981C79.6922 16.2239 80.018 18.278 80.6618 19.9023C81.307 21.5305 82.2158 22.8452 83.363 23.8121C84.5102 24.779 85.9184 25.4681 87.5478 25.8609C89.1693 26.2537 90.9709 26.4521 92.901 26.4521C94.6152 26.4521 96.295 26.3794 97.8953 26.2379C99.4372 26.1016 100.622 25.9786 101.416 25.8728V41.0227H112.116V0.5H101.416L101.415 17.0612Z" fill="#282828"/>
<path fill-rule="evenodd" clip-rule="evenodd" d="M153.36 41.0227V0.5H142.715V16.0877H127.667V0.5H117.02V41.0227H127.667V24.4695H142.715V41.0227H153.36Z" fill="#282828"/>
<path fill-rule="evenodd" clip-rule="evenodd" d="M172.09 0.5L156.518 40.9328L156.483 41.0227H167.782L170.572 34.0059H184.964L187.592 41.0227H198.945L183.662 0.5H172.09ZM173.516 25.8384L177.816 13.1143H177.828L182.075 25.8384H173.516Z" fill="#282828"/>
<path fill-rule="evenodd" clip-rule="evenodd" d="M234.618 41.0227V0.5H219.264C214.62 0.5 211.004 1.65999 208.518 3.94556C206.03 6.23378 204.769 9.42142 204.769 13.4225C204.769 16.458 205.495 19.0928 206.926 21.2527C208.342 23.3941 210.471 24.8279 213.253 25.5157L202.077 41.0214H214.956L223.807 26.2895H223.971V41.0214H234.616L234.618 41.0227ZM222.054 19.1946C217.791 19.1946 215.63 17.4686 215.63 14.064C215.63 10.6594 217.792 8.93336 222.054 8.93336H223.972V19.1933L222.054 19.1946Z" fill="#282828"/>
</svg>
