<svg width="20" height="21" viewBox="0 0 20 21" fill="none" xmlns="http://www.w3.org/2000/svg">
<path fill-rule="evenodd" clip-rule="evenodd" d="M0.43934 0.93934C1.02513 0.353553 1.97487 0.353553 2.56066 0.93934L10 8.37868L17.4393 0.93934C18.0251 0.353553 18.9749 0.353553 19.5607 0.93934C20.1464 1.52513 20.1464 2.47487 19.5607 3.06066L12.1213 10.5L19.5607 17.9393C20.1464 18.5251 20.1464 19.4749 19.5607 20.0607C18.9749 20.6464 18.0251 20.6464 17.4393 20.0607L10 12.6213L2.56066 20.0607C1.97487 20.6464 1.02513 20.6464 0.43934 20.0607C-0.146447 19.4749 -0.146447 18.5251 0.43934 17.9393L7.87868 10.5L0.43934 3.06066C-0.146447 2.47487 -0.146447 1.52513 0.43934 0.93934Z" fill="#282828"/>
</svg>
